# Blender v3.0.1 OBJ File: 'spot_racket_split.blend'
# www.blender.org
mtllib racket_handle.mtl
o racket_handle_badminton_racket
v 0.006277 -0.320349 0.013200
v 0.006277 -0.320349 0.005500
v 0.006802 -0.320321 0.005500
v 0.011298 -0.315327 0.005500
v 0.011298 -0.315327 0.013200
v 0.011271 -0.315852 0.005500
v 0.011271 -0.315852 0.013200
v 0.011189 -0.316371 0.005500
v 0.011189 -0.316371 0.013200
v 0.011053 -0.316879 0.005500
v 0.011053 -0.316879 0.013200
v 0.010864 -0.317370 0.005500
v 0.010864 -0.317370 0.013200
v 0.010626 -0.317838 0.005500
v 0.010626 -0.317838 0.013200
v 0.010339 -0.318279 0.005500
v 0.010339 -0.318279 0.013200
v 0.010009 -0.318687 0.005500
v 0.010009 -0.318687 0.013200
v 0.009637 -0.319059 0.005500
v 0.009637 -0.319059 0.013200
v 0.009228 -0.319390 0.005500
v 0.009228 -0.319390 0.013200
v 0.008788 -0.319676 0.005500
v 0.008788 -0.319676 0.013200
v 0.008319 -0.319915 0.005500
v 0.008319 -0.319915 0.013200
v 0.007829 -0.320103 0.005500
v 0.007829 -0.320103 0.013200
v 0.007321 -0.320239 0.005500
v 0.007321 -0.320239 0.013200
v 0.006802 -0.320321 0.013200
v -0.011298 -0.315327 0.013200
v -0.011271 -0.315327 0.013775
v -0.011298 -0.174725 0.013200
v -0.011271 -0.174201 0.013775
v -0.011189 -0.173681 0.014344
v -0.011172 -0.315327 0.014424
v -0.011053 -0.173174 0.014900
v -0.011053 -0.315327 0.014900
v -0.010864 -0.172683 0.015437
v -0.010801 -0.315327 0.015586
v -0.010626 -0.172215 0.015950
v -0.010626 -0.315327 0.015950
v -0.010339 -0.171774 0.016433
v -0.010203 -0.315327 0.016629
v -0.010009 -0.171365 0.016880
v -0.010009 -0.315327 0.016880
v -0.009637 -0.170994 0.017287
v -0.009408 -0.315327 0.017500
v -0.009228 -0.170663 0.017650
v -0.009228 -0.315327 0.017650
v -0.008788 -0.170377 0.017963
v -0.008456 -0.315327 0.018155
v -0.008319 -0.170138 0.018225
v -0.008319 -0.315327 0.018225
v -0.007829 -0.169950 0.018431
v -0.007394 -0.315327 0.018562
v -0.007321 -0.169814 0.018580
v -0.007321 -0.315327 0.018580
v -0.006802 -0.169731 0.018670
v -0.006277 -0.315327 0.018700
v -0.006277 -0.169704 0.018700
v 0.006277 -0.316371 0.018580
v 0.006277 -0.316445 0.018562
v 0.007321 -0.316420 0.018445
v 0.006277 -0.317370 0.018225
v 0.006277 -0.317506 0.018155
v 0.007321 -0.317459 0.018047
v 0.006277 -0.318279 0.017650
v 0.006277 -0.318458 0.017500
v 0.007321 -0.318390 0.017406
v 0.006277 -0.319059 0.016880
v 0.006277 -0.319253 0.016629
v 0.007321 -0.319168 0.016554
v 0.006277 -0.319676 0.015950
v 0.006277 -0.319852 0.015586
v 0.007321 -0.319753 0.015534
v 0.006277 -0.320103 0.014900
v 0.006277 -0.320223 0.014424
v 0.007321 -0.320116 0.014397
v 0.011271 -0.315839 0.013328
v 0.011053 -0.316840 0.013578
v 0.010626 -0.317775 0.013812
v 0.010009 -0.318603 0.014019
v 0.009228 -0.319288 0.014190
v 0.008319 -0.319800 0.014318
v 0.006277 -0.320321 0.013775
v 0.008319 -0.319461 0.015380
v 0.009228 -0.318988 0.015131
v 0.010009 -0.318355 0.014797
v 0.010626 -0.317590 0.014393
v 0.011053 -0.316725 0.013937
v 0.011271 -0.315800 0.013449
v 0.008319 -0.318914 0.016333
v 0.009228 -0.318504 0.015974
v 0.010009 -0.317954 0.015495
v 0.010626 -0.317290 0.014915
v 0.011053 -0.316541 0.014260
v 0.011271 -0.315738 0.013558
v 0.008319 -0.318188 0.017128
v 0.009228 -0.317860 0.016679
v 0.010009 -0.317422 0.016077
v 0.010626 -0.316893 0.015350
v 0.011053 -0.316295 0.014529
v 0.011271 -0.315655 0.013649
v 0.008319 -0.317318 0.017727
v 0.009228 -0.317090 0.017209
v 0.010009 -0.316785 0.016516
v 0.010626 -0.316417 0.015678
v 0.011053 -0.316001 0.014731
v 0.011271 -0.315555 0.013718
v 0.008319 -0.316348 0.018099
v 0.009228 -0.316231 0.017538
v 0.010009 -0.316075 0.016788
v 0.010626 -0.315886 0.015881
v 0.011053 -0.315673 0.014857
v 0.011271 -0.315444 0.013760
v 0.006277 -0.315327 0.018700
v 0.007321 -0.315327 0.018580
v 0.008319 -0.315327 0.018225
v 0.009228 -0.315327 0.017650
v 0.010009 -0.315327 0.016880
v 0.010626 -0.315327 0.015950
v 0.011053 -0.315327 0.014900
v 0.011271 -0.315327 0.013775
v 0.001004 -0.169704 0.000000
v 0.006277 -0.169704 0.000000
v 0.006277 -0.315327 0.000000
v -0.006277 -0.315327 0.000000
v -0.006277 -0.169704 0.000000
v -0.001004 -0.169704 0.000000
v -0.006277 -0.320349 0.013200
v -0.006277 -0.320349 0.005500
v -0.005022 -0.169704 0.008800
v -0.005022 -0.169704 0.004400
v 0.005021 -0.169704 0.008800
v 0.005021 -0.169704 0.004400
v -0.011271 -0.315327 0.004925
v -0.011172 -0.315327 0.004276
v -0.011065 -0.316371 0.004303
v -0.011053 -0.315327 0.003800
v -0.010801 -0.315327 0.003114
v -0.010702 -0.316371 0.003166
v -0.010626 -0.315327 0.002750
v -0.010203 -0.315327 0.002071
v -0.010117 -0.316371 0.002146
v -0.010009 -0.315327 0.001820
v -0.009408 -0.315327 0.001200
v -0.009339 -0.316371 0.001294
v -0.009228 -0.315327 0.001050
v -0.008456 -0.315327 0.000545
v -0.008408 -0.316371 0.000653
v -0.008319 -0.315327 0.000476
v -0.007394 -0.315327 0.000138
v -0.007370 -0.316371 0.000255
v -0.007321 -0.315327 0.000120
v -0.006277 -0.316371 0.000120
v -0.007298 -0.317370 0.000601
v -0.006277 -0.317370 0.000476
v -0.007181 -0.318279 0.001162
v -0.006277 -0.318279 0.001050
v -0.007025 -0.319059 0.001912
v -0.006277 -0.319059 0.001820
v -0.006836 -0.319676 0.002819
v -0.006277 -0.319676 0.002750
v -0.006622 -0.320103 0.003843
v -0.006277 -0.320103 0.003800
v -0.006394 -0.320321 0.004940
v -0.006277 -0.320321 0.004925
v -0.008267 -0.317370 0.000973
v -0.008040 -0.318279 0.001491
v -0.007735 -0.319059 0.002184
v -0.007366 -0.319676 0.003022
v -0.006950 -0.320103 0.003969
v -0.006505 -0.320321 0.004982
v -0.009137 -0.317370 0.001572
v -0.008810 -0.318279 0.002021
v -0.008372 -0.319059 0.002623
v -0.007842 -0.319676 0.003350
v -0.007244 -0.320103 0.004171
v -0.006604 -0.320321 0.005051
v -0.009863 -0.317370 0.002367
v -0.009453 -0.318279 0.002726
v -0.008904 -0.319059 0.003205
v -0.008240 -0.319676 0.003785
v -0.007490 -0.320103 0.004440
v -0.006687 -0.320321 0.005142
v -0.010410 -0.317370 0.003320
v -0.009937 -0.318279 0.003569
v -0.009304 -0.319059 0.003903
v -0.008539 -0.319676 0.004307
v -0.007675 -0.320103 0.004763
v -0.006750 -0.320321 0.005251
v -0.010749 -0.317370 0.004382
v -0.010238 -0.318279 0.004510
v -0.009553 -0.319059 0.004681
v -0.008725 -0.319676 0.004888
v -0.007790 -0.320103 0.005122
v -0.006789 -0.320321 0.005372
v -0.011298 -0.315327 0.005500
v -0.011189 -0.316371 0.005500
v -0.010864 -0.317370 0.005500
v -0.010339 -0.318279 0.005500
v -0.009637 -0.319059 0.005500
v -0.008788 -0.319676 0.005500
v -0.007829 -0.320103 0.005500
v -0.006802 -0.320321 0.005500
v -0.006802 -0.169731 0.000030
v -0.010009 -0.171365 0.001820
v -0.009637 -0.170994 0.001413
v -0.009228 -0.170663 0.001050
v -0.008788 -0.170377 0.000737
v -0.008319 -0.170138 0.000476
v -0.007829 -0.169950 0.000269
v -0.007321 -0.169814 0.000120
v -0.010339 -0.171774 0.002267
v -0.010626 -0.172215 0.002750
v -0.010864 -0.172683 0.003263
v -0.011053 -0.173174 0.003800
v -0.011189 -0.173681 0.004356
v -0.011271 -0.174201 0.004925
v -0.011298 -0.174725 0.005500
v 0.006277 -0.320321 0.004925
v 0.006277 -0.320223 0.004276
v 0.006277 -0.320103 0.003800
v 0.006277 -0.319852 0.003114
v 0.006277 -0.319676 0.002750
v 0.006277 -0.319253 0.002071
v 0.006277 -0.319059 0.001820
v 0.006277 -0.318458 0.001200
v 0.006277 -0.318279 0.001050
v 0.006277 -0.317506 0.000545
v 0.006277 -0.317370 0.000476
v 0.006277 -0.316445 0.000138
v 0.006277 -0.316371 0.000120
v -0.007370 -0.316371 0.018445
v -0.008408 -0.316371 0.018047
v -0.009339 -0.316371 0.017406
v -0.010117 -0.316371 0.016554
v -0.010702 -0.316371 0.015534
v -0.011065 -0.316371 0.014397
v -0.011189 -0.316371 0.013200
v -0.010749 -0.317370 0.014318
v -0.010864 -0.317370 0.013200
v -0.010238 -0.318279 0.014190
v -0.010339 -0.318279 0.013200
v -0.009553 -0.319059 0.014019
v -0.009637 -0.319059 0.013200
v -0.008725 -0.319676 0.013812
v -0.008788 -0.319676 0.013200
v -0.007790 -0.320103 0.013578
v -0.007829 -0.320103 0.013200
v -0.006789 -0.320321 0.013328
v -0.006802 -0.320321 0.013200
v -0.010410 -0.317370 0.015380
v -0.009937 -0.318279 0.015131
v -0.009304 -0.319059 0.014797
v -0.008539 -0.319676 0.014393
v -0.007675 -0.320103 0.013937
v -0.006750 -0.320321 0.013449
v -0.009863 -0.317370 0.016333
v -0.009453 -0.318279 0.015974
v -0.008904 -0.319059 0.015495
v -0.008240 -0.319676 0.014915
v -0.007490 -0.320103 0.014260
v -0.006687 -0.320321 0.013558
v -0.009137 -0.317370 0.017128
v -0.008810 -0.318279 0.016679
v -0.008372 -0.319059 0.016077
v -0.007842 -0.319676 0.015350
v -0.007244 -0.320103 0.014529
v -0.006604 -0.320321 0.013649
v -0.008267 -0.317370 0.017727
v -0.008040 -0.318279 0.017209
v -0.007735 -0.319059 0.016516
v -0.007366 -0.319676 0.015678
v -0.006950 -0.320103 0.014731
v -0.006505 -0.320321 0.013718
v -0.007298 -0.317370 0.018099
v -0.007181 -0.318279 0.017538
v -0.007025 -0.319059 0.016788
v -0.006836 -0.319676 0.015881
v -0.006622 -0.320103 0.014857
v -0.006394 -0.320321 0.013760
v -0.006277 -0.316371 0.018580
v -0.006277 -0.317370 0.018225
v -0.006277 -0.318279 0.017650
v -0.006277 -0.319059 0.016880
v -0.006277 -0.319676 0.015950
v -0.006277 -0.320103 0.014900
v -0.006277 -0.320321 0.013775
v 0.011271 -0.315327 0.004925
v 0.011298 -0.174725 0.005500
v 0.011271 -0.174201 0.004925
v 0.011189 -0.173681 0.004356
v 0.011053 -0.315327 0.003800
v 0.011053 -0.173174 0.003800
v 0.010864 -0.172683 0.003263
v 0.010626 -0.315327 0.002750
v 0.010626 -0.172215 0.002750
v 0.010339 -0.171774 0.002267
v 0.010009 -0.315327 0.001820
v 0.010009 -0.171365 0.001820
v 0.009637 -0.170994 0.001413
v 0.009228 -0.315327 0.001050
v 0.009228 -0.170663 0.001050
v 0.008788 -0.170377 0.000737
v 0.008319 -0.315327 0.000476
v 0.008319 -0.170138 0.000476
v 0.007829 -0.169950 0.000269
v 0.007321 -0.315327 0.000120
v 0.007321 -0.169814 0.000120
v 0.006802 -0.169731 0.000030
v 0.006277 -0.169704 0.018700
v 0.006802 -0.169731 0.018670
v 0.007321 -0.169814 0.018580
v 0.007829 -0.169950 0.018431
v 0.008319 -0.170138 0.018225
v 0.008788 -0.170377 0.017963
v 0.009228 -0.170663 0.017650
v 0.010626 -0.172215 0.015950
v 0.010339 -0.171774 0.016433
v 0.010009 -0.171365 0.016880
v 0.009637 -0.170994 0.017287
v 0.011271 -0.174201 0.013775
v 0.011189 -0.173681 0.014344
v 0.011053 -0.173174 0.014900
v 0.010864 -0.172683 0.015437
v 0.011298 -0.174725 0.013200
v 0.007321 -0.319753 0.003166
v 0.007321 -0.319168 0.002146
v 0.007321 -0.318390 0.001294
v 0.007321 -0.317459 0.000653
v 0.007321 -0.316420 0.000255
v 0.011271 -0.315839 0.005372
v 0.011053 -0.316840 0.005122
v 0.010626 -0.317775 0.004888
v 0.010009 -0.318603 0.004681
v 0.009228 -0.319288 0.004510
v 0.008319 -0.319800 0.004382
v 0.008319 -0.316348 0.000601
v 0.009228 -0.316231 0.001162
v 0.010009 -0.316075 0.001912
v 0.010626 -0.315886 0.002819
v 0.011053 -0.315673 0.003843
v 0.011271 -0.315444 0.004940
v 0.008319 -0.317318 0.000973
v 0.009228 -0.317090 0.001491
v 0.010009 -0.316785 0.002184
v 0.010626 -0.316417 0.003022
v 0.011053 -0.316001 0.003969
v 0.011271 -0.315555 0.004982
v 0.008319 -0.318188 0.001572
v 0.009228 -0.317860 0.002021
v 0.010009 -0.317422 0.002623
v 0.010626 -0.316893 0.003350
v 0.011053 -0.316295 0.004171
v 0.011271 -0.315655 0.005051
v 0.008319 -0.318914 0.002367
v 0.009228 -0.318504 0.002726
v 0.010009 -0.317954 0.003205
v 0.010626 -0.317290 0.003785
v 0.011053 -0.316541 0.004440
v 0.011271 -0.315738 0.005142
v 0.008319 -0.319461 0.003320
v 0.009228 -0.318988 0.003569
v 0.010009 -0.318355 0.003903
v 0.010626 -0.317590 0.004307
v 0.011053 -0.316725 0.004763
v 0.011271 -0.315800 0.005251
v 0.007321 -0.320116 0.004303
v -0.003366 -0.169704 0.012360
v -0.004254 -0.169704 0.011386
v -0.002246 -0.169704 0.012985
v 0.002246 -0.169704 0.000215
v 0.004254 -0.169704 0.011386
v 0.003366 -0.169704 0.012360
v -0.004825 -0.169704 0.003040
v -0.004254 -0.169704 0.001814
v -0.003366 -0.169704 0.000840
v -0.002246 -0.169704 0.000215
v 0.003366 -0.169704 0.000840
v 0.004254 -0.169704 0.001814
v 0.004825 -0.169704 0.003040
v -0.004825 -0.169704 0.010160
v 0.002246 -0.169704 0.012985
v 0.001004 -0.169704 0.013200
v -0.001004 -0.169704 0.013200
v 0.004825 -0.169704 0.010160
v 0.002921 0.039051 0.000535
v 0.002483 0.039051 0.000314
v 0.003330 0.039051 0.000812
v 0.003365 0.039051 0.000840
v 0.000924 0.039051 0.000000
v 0.001004 0.039051 0.000000
v 0.005021 0.039051 0.004400
v 0.005010 0.039051 0.004075
v 0.004977 0.039051 0.003756
v 0.004301 0.039051 0.001895
v 0.004491 0.039051 0.002219
v 0.004825 0.039051 0.003039
v 0.004774 0.039051 0.002879
v 0.004647 0.039051 0.002547
v 0.004254 0.039051 0.001813
v 0.004043 0.039051 0.001522
v 0.004269 0.039051 0.001845
v 0.003766 0.039051 0.001208
v 0.004829 0.039051 0.003071
v 0.004880 0.039051 0.003255
v 0.001300 0.039051 0.000017
v 0.001054 0.039051 0.000009
v 0.002368 0.039051 0.000268
v 0.002284 0.039051 0.000237
v 0.002245 0.039051 0.000215
v 0.002245 0.039051 0.000215
v 0.003691 0.039051 0.001133
v 0.001820 0.039051 0.000093
v 0.003391 0.039051 0.000869
v 0.004161 0.039051 0.011514
v 0.003929 0.039051 0.011813
v 0.005021 0.039051 0.008800
v 0.005017 0.039051 0.008831
v 0.001024 0.039051 0.013200
v 0.001004 0.039051 0.013200
v 0.001539 0.039051 0.013159
v 0.004231 0.039051 0.011412
v 0.002039 0.039051 0.013046
v 0.004254 0.039051 0.011387
v 0.002202 0.039051 0.012990
v 0.003127 0.039051 0.012531
v 0.002744 0.039051 0.012764
v 0.003666 0.039051 0.012095
v 0.002330 0.039051 0.012954
v 0.003510 0.039051 0.012239
v 0.003364 0.039051 0.012361
v 0.003331 0.039051 0.012379
v 0.000924 0.039051 0.013200
v -0.001004 0.039051 0.013200
v -0.001004 0.039051 0.000000
v -0.005022 0.039051 0.004400
v -0.005022 0.039051 0.004500
v 0.002245 0.039051 0.012983
v -0.005022 0.039051 0.008800
v 0.005021 0.039051 0.008700
v 0.004387 0.039051 0.011173
v 0.004623 0.039051 0.010707
v 0.004825 0.039051 0.010161
v 0.004811 0.039051 0.010190
v -0.004977 0.039051 0.009444
v -0.005010 0.039051 0.009125
v 0.004875 0.039051 0.009977
v 0.004987 0.039051 0.009359
v 0.004744 0.039051 0.010397
v -0.004647 0.039051 0.010653
v -0.004491 0.039051 0.010981
v -0.003364 0.039051 0.000839
v -0.003510 0.039051 0.000961
v -0.003666 0.039051 0.001105
v -0.003331 0.039051 0.000821
v -0.003331 0.039051 0.000821
v 0.003331 0.039051 0.012379
v -0.001539 0.039051 0.000041
v -0.002039 0.039051 0.000154
v -0.004825 0.039051 0.003039
v -0.004811 0.039051 0.003010
v -0.004875 0.039051 0.003223
v -0.002330 0.039051 0.000246
v -0.002744 0.039051 0.000436
v -0.004744 0.039051 0.002803
v -0.004987 0.039051 0.003841
v -0.005017 0.039051 0.004369
v -0.004623 0.039051 0.002493
v -0.003127 0.039051 0.000669
v -0.002202 0.039051 0.000208
v -0.002202 0.039051 0.000208
v -0.002245 0.039051 0.000215
v -0.003929 0.039051 0.001387
v -0.001024 0.039051 0.000000
v -0.004254 0.039051 0.001813
v -0.004387 0.039051 0.002027
v -0.004231 0.039051 0.001787
v -0.004161 0.039051 0.001686
v -0.004880 0.039051 0.009945
v -0.004829 0.039051 0.010129
v -0.004301 0.039051 0.011305
v -0.001300 0.039051 0.013183
v -0.001820 0.039051 0.013107
v -0.002921 0.039051 0.012665
v -0.002483 0.039051 0.012886
v -0.001054 0.039051 0.013191
v -0.002245 0.039051 0.012985
v -0.002245 0.039051 0.012985
v -0.002284 0.039051 0.012963
v -0.002368 0.039051 0.012932
v -0.003691 0.039051 0.012067
v -0.003391 0.039051 0.012331
v -0.003365 0.039051 0.012360
v -0.004825 0.039051 0.010161
v -0.004774 0.039051 0.010321
v -0.003766 0.039051 0.011992
v -0.003330 0.039051 0.012388
v -0.004254 0.039051 0.011387
v -0.004269 0.039051 0.011355
v -0.004043 0.039051 0.011678
vt 0.000000 0.000000
vt 0.000000 0.000000
vt 0.000000 0.000000
vt 0.000000 0.000000
vt 0.000000 0.000000
vt 0.000000 0.000000
vt 0.000000 0.000000
vt 0.000000 0.000000
vt 0.000000 0.000000
vt 0.000000 0.000000
vt 0.000000 0.000000
vt 0.000000 0.000000
vt 0.000000 0.000000
vt 0.000000 0.000000
vt 0.000000 0.000000
vt 0.000000 0.000000
vt 0.000000 0.000000
vt 0.000000 0.000000
vt 0.000000 0.000000
vt 0.000000 0.000000
vt 0.000000 0.000000
vt 0.000000 0.000000
vt 0.000000 0.000000
vt 0.000000 0.000000
vt 0.000000 0.000000
vt 0.000000 0.000000
vt 0.000000 0.000000
vt 0.000000 0.000000
vt 0.000000 0.000000
vt 0.000000 0.000000
vt 0.000000 0.000000
vt 0.000000 0.000000
vt 0.000000 0.000000
vt 0.000000 0.000000
vt 0.000000 0.000000
vt 0.000000 0.000000
vt 0.000000 0.000000
vt 0.000000 0.000000
vt 0.000000 0.000000
vt 0.000000 0.000000
vt 0.000000 0.000000
vt 0.000000 0.000000
vt 0.000000 0.000000
vt 0.000000 0.000000
vt 0.000000 0.000000
vt 0.000000 0.000000
vt 0.000000 0.000000
vt 0.000000 0.000000
vt 0.000000 0.000000
vt 0.000000 0.000000
vt 0.000000 0.000000
vt 0.000000 0.000000
vt 0.000000 0.000000
vt 0.000000 0.000000
vt 0.000000 0.000000
vt 0.000000 0.000000
vt 0.000000 0.000000
vt 0.000000 0.000000
vt 0.000000 0.000000
vt 0.000000 0.000000
vt 0.000000 0.000000
vt 0.000000 0.000000
vt 0.000000 0.000000
vt 0.000000 0.000000
vt 0.000000 0.000000
vt 0.000000 0.000000
vt 0.000000 0.000000
vt 0.000000 0.000000
vt 0.000000 0.000000
vt 0.000000 0.000000
vt 0.000000 0.000000
vt 0.000000 0.000000
vt 0.000000 0.000000
vt 0.000000 0.000000
vt 0.000000 0.000000
vt 0.000000 0.000000
vt 0.000000 0.000000
vt 0.000000 0.000000
vt 0.000000 0.000000
vt 0.000000 0.000000
vt 0.000000 0.000000
vt 0.000000 0.000000
vt 0.000000 0.000000
vt 0.000000 0.000000
vt 0.000000 0.000000
vt 0.000000 0.000000
vt 0.000000 0.000000
vt 0.000000 0.000000
vt 0.000000 0.000000
vt 0.000000 0.000000
vt 0.000000 0.000000
vt 0.000000 0.000000
vt 0.000000 0.000000
vt 0.000000 0.000000
vt 0.000000 0.000000
vt 0.000000 0.000000
vt 0.000000 0.000000
vt 0.000000 0.000000
vt 0.000000 0.000000
vt 0.000000 0.000000
vt 0.000000 0.000000
vt 0.000000 0.000000
vt 0.000000 0.000000
vt 0.000000 0.000000
vt 0.000000 0.000000
vt 0.000000 0.000000
vt 0.000000 0.000000
vt 0.000000 0.000000
vt 0.000000 0.000000
vt 0.000000 0.000000
vt 0.000000 0.000000
vt 0.000000 0.000000
vt 0.000000 0.000000
vt 0.000000 0.000000
vt 0.000000 0.000000
vt 0.000000 0.000000
vt 0.000000 0.000000
vt 0.000000 0.000000
vt 0.000000 0.000000
vt 0.000000 0.000000
vt 0.000000 0.000000
vt 0.000000 0.000000
vt 0.000000 0.000000
vt 0.000000 0.000000
vt 0.000000 0.000000
vt 0.000000 0.000000
vt 0.000000 0.000000
vt 0.000000 0.000000
vt 0.000000 0.000000
vt 0.000000 0.000000
vt 0.000000 0.000000
vt 0.000000 0.000000
vt 0.000000 0.000000
vt 0.000000 0.000000
vt 0.000000 0.000000
vt 0.000000 0.000000
vt 0.000000 0.000000
vt 0.000000 0.000000
vt 0.000000 0.000000
vt 0.000000 0.000000
vt 0.000000 0.000000
vt 0.000000 0.000000
vt 0.000000 0.000000
vt 0.000000 0.000000
vt 0.000000 0.000000
vt 0.000000 0.000000
vt 0.000000 0.000000
vt 0.000000 0.000000
vt 0.000000 0.000000
vt 0.000000 0.000000
vt 0.000000 0.000000
vt 0.000000 0.000000
vt 0.000000 0.000000
vt 0.000000 0.000000
vt 0.000000 0.000000
vt 0.000000 0.000000
vt 0.000000 0.000000
vt 0.000000 0.000000
vt 0.000000 0.000000
vt 0.000000 0.000000
vt 0.000000 0.000000
vt 0.000000 0.000000
vt 0.000000 0.000000
vt 0.000000 0.000000
vt 0.000000 0.000000
vt 0.000000 0.000000
vt 0.000000 0.000000
vt 0.000000 0.000000
vt 0.000000 0.000000
vt 0.000000 0.000000
vt 0.000000 0.000000
vt 0.000000 0.000000
vt 0.000000 0.000000
vt 0.000000 0.000000
vt 0.000000 0.000000
vt 0.000000 0.000000
vt 0.000000 0.000000
vt 0.000000 0.000000
vt 0.000000 0.000000
vt 0.000000 0.000000
vt 0.000000 0.000000
vt 0.000000 0.000000
vt 0.000000 0.000000
vt 0.000000 0.000000
vt 0.000000 0.000000
vt 0.000000 0.000000
vt 0.000000 0.000000
vt 0.000000 0.000000
vt 0.000000 0.000000
vt 0.000000 0.000000
vt 0.000000 0.000000
vt 0.000000 0.000000
vt 0.000000 0.000000
vt 0.000000 0.000000
vt 0.000000 0.000000
vt 0.000000 0.000000
vt 0.000000 0.000000
vt 0.000000 0.000000
vt 0.000000 0.000000
vt 0.000000 0.000000
vt 0.000000 0.000000
vt 0.000000 0.000000
vt 0.000000 0.000000
vt 0.000000 0.000000
vt 0.000000 0.000000
vt 0.000000 0.000000
vt 0.000000 0.000000
vt 0.000000 0.000000
vt 0.000000 0.000000
vt 0.000000 0.000000
vt 0.000000 0.000000
vt 0.000000 0.000000
vt 0.000000 0.000000
vt 0.000000 0.000000
vt 0.000000 0.000000
vt 0.000000 0.000000
vt 0.000000 0.000000
vt 0.000000 0.000000
vt 0.000000 0.000000
vt 0.000000 0.000000
vt 0.000000 0.000000
vt 0.000000 0.000000
vt 0.000000 0.000000
vt 0.000000 0.000000
vt 0.000000 0.000000
vt 0.000000 0.000000
vt 0.000000 0.000000
vt 0.000000 0.000000
vt 0.000000 0.000000
vt 0.000000 0.000000
vt 0.000000 0.000000
vt 0.000000 0.000000
vt 0.000000 0.000000
vt 0.000000 0.000000
vt 0.000000 0.000000
vt 0.000000 0.000000
vt 0.000000 0.000000
vt 0.000000 0.000000
vt 0.000000 0.000000
vt 0.000000 0.000000
vt 0.000000 0.000000
vt 0.000000 0.000000
vt 0.000000 0.000000
vt 0.000000 0.000000
vt 0.000000 0.000000
vt 0.000000 0.000000
vt 0.000000 0.000000
vt 0.000000 0.000000
vt 0.000000 0.000000
vt 0.000000 0.000000
vt 0.000000 0.000000
vt 0.000000 0.000000
vt 0.000000 0.000000
vt 0.000000 0.000000
vt 0.000000 0.000000
vt 0.000000 0.000000
vt 0.000000 0.000000
vt 0.000000 0.000000
vt 0.000000 0.000000
vt 0.000000 0.000000
vt 0.000000 0.000000
vt 0.000000 0.000000
vt 0.000000 0.000000
vt 0.000000 0.000000
vt 0.000000 0.000000
vt 0.000000 0.000000
vt 0.000000 0.000000
vt 0.000000 0.000000
vt 0.000000 0.000000
vt 0.000000 0.000000
vt 0.000000 0.000000
vt 0.000000 0.000000
vt 0.000000 0.000000
vt 0.000000 0.000000
vt 0.000000 0.000000
vt 0.000000 0.000000
vt 0.000000 0.000000
vt 0.000000 0.000000
vt 0.000000 0.000000
vt 0.000000 0.000000
vt 0.000000 0.000000
vt 0.000000 0.000000
vt 0.000000 0.000000
vt 0.000000 0.000000
vt 0.000000 0.000000
vt 0.000000 0.000000
vt 0.000000 0.000000
vt 0.000000 0.000000
vt 0.000000 0.000000
vt 0.000000 0.000000
vt 0.000000 0.000000
vt 0.000000 0.000000
vt 0.000000 0.000000
vt 0.000000 0.000000
vt 0.000000 0.000000
vt 0.000000 0.000000
vt 0.000000 0.000000
vt 0.000000 0.000000
vt 0.000000 0.000000
vt 0.000000 0.000000
vt 0.000000 0.000000
vt 0.000000 0.000000
vt 0.000000 0.000000
vt 0.000000 0.000000
vt 0.000000 0.000000
vt 0.000000 0.000000
vt 0.000000 0.000000
vt 0.000000 0.000000
vt 0.000000 0.000000
vt 0.000000 0.000000
vt 0.000000 0.000000
vt 0.000000 0.000000
vt 0.000000 0.000000
vt 0.000000 0.000000
vt 0.000000 0.000000
vt 0.000000 0.000000
vt 0.000000 0.000000
vt 0.000000 0.000000
vt 0.000000 0.000000
vt 0.000000 0.000000
vt 0.000000 0.000000
vt 0.000000 0.000000
vt 0.000000 0.000000
vt 0.000000 0.000000
vt 0.000000 0.000000
vt 0.000000 0.000000
vt 0.000000 0.000000
vt 0.000000 0.000000
vt 0.000000 0.000000
vt 0.000000 0.000000
vt 0.000000 0.000000
vt 0.000000 0.000000
vt 0.000000 0.000000
vt 0.000000 0.000000
vt 0.000000 0.000000
vt 0.000000 0.000000
vt 0.000000 0.000000
vt 0.000000 0.000000
vt 0.000000 0.000000
vt 0.000000 0.000000
vt 0.000000 0.000000
vt 0.000000 0.000000
vt 0.000000 0.000000
vt 0.000000 0.000000
vt 0.000000 0.000000
vt 0.000000 0.000000
vt 0.000000 0.000000
vt 0.000000 0.000000
vt 0.000000 0.000000
vt 0.000000 0.000000
vt 0.000000 0.000000
vt 0.000000 0.000000
vt 0.000000 0.000000
vt 0.000000 0.000000
vt 0.000000 0.000000
vt 0.000000 0.000000
vt 0.000000 0.000000
vt 0.000000 0.000000
vt 0.000000 0.000000
vt 0.000000 0.000000
vt 0.000000 0.000000
vt 0.000000 0.000000
vt 0.000000 0.000000
vt 0.000000 0.000000
vt 0.000000 0.000000
vt 0.000000 0.000000
vt 0.000000 0.000000
vt 0.000000 0.000000
vt 0.000000 0.000000
vt 0.000000 0.000000
vt 0.000000 0.000000
vt 0.000000 0.000000
vt 0.000000 0.000000
vt 0.000000 0.000000
vt 0.000000 0.000000
vt 0.000000 0.000000
vt 0.000000 0.000000
vt 0.000000 0.000000
vt 0.000000 0.000000
vt 0.000000 0.000000
vt 0.000000 0.000000
vt 0.000000 0.000000
vt 0.000000 0.000000
vt 0.000000 0.000000
vt 0.000000 0.000000
vt 0.000000 0.000000
vt 0.000000 0.000000
vt 0.000000 0.000000
vt 0.000000 0.000000
vt 0.000000 0.000000
vt 0.000000 0.000000
vt 0.000000 0.000000
vt 0.000000 0.000000
vt 0.000000 0.000000
vt 0.000000 0.000000
vt 0.000000 0.000000
vt 0.000000 0.000000
vt 0.000000 0.000000
vt 0.000000 0.000000
vt 0.000000 0.000000
vt 0.000000 0.000000
vt 0.000000 0.000000
vt 0.000000 0.000000
vt 0.000000 0.000000
vt 0.000000 0.000000
vt 0.000000 0.000000
vt 0.000000 0.000000
vt 0.000000 0.000000
vt 0.000000 0.000000
vt 0.000000 0.000000
vt 0.000000 0.000000
vt 0.000000 0.000000
vt 0.000000 0.000000
vt 0.000000 0.000000
vt 0.000000 0.000000
vt 0.000000 0.000000
vt 0.000000 0.000000
vt 0.000000 0.000000
vt 0.000000 0.000000
vt 0.000000 0.000000
vt 0.000000 0.000000
vt 0.000000 0.000000
vt 0.000000 0.000000
vt 0.000000 0.000000
vt 0.000000 0.000000
vt 0.000000 0.000000
vt 0.000000 0.000000
vt 0.000000 0.000000
vt 0.000000 0.000000
vt 0.000000 0.000000
vt 0.000000 0.000000
vt 0.000000 0.000000
vt 0.000000 0.000000
vt 0.000000 0.000000
vt 0.000000 0.000000
vt 0.000000 0.000000
vt 0.000000 0.000000
vt 0.000000 0.000000
vt 0.000000 0.000000
vt 0.000000 0.000000
vt 0.000000 0.000000
vt 0.000000 0.000000
vt 0.000000 0.000000
vt 0.000000 0.000000
vt 0.000000 0.000000
vt 0.000000 0.000000
vt 0.000000 0.000000
vt 0.000000 0.000000
vt 0.000000 0.000000
vt 0.000000 0.000000
vt 0.000000 0.000000
vt 0.000000 0.000000
vt 0.000000 0.000000
vt 0.000000 0.000000
vt 0.000000 0.000000
vt 0.000000 0.000000
vt 0.000000 0.000000
vt 0.000000 0.000000
vt 0.000000 0.000000
vt 0.000000 0.000000
vt 0.000000 0.000000
vt 0.000000 0.000000
vt 0.000000 0.000000
vt 0.000000 0.000000
vt 0.000000 0.000000
vt 0.000000 0.000000
vt 0.000000 0.000000
vt 0.000000 0.000000
vt 0.000000 0.000000
vt 0.000000 0.000000
vt 0.000000 0.000000
vt 0.000000 0.000000
vt 0.000000 0.000000
vt 0.000000 0.000000
vt 0.000000 0.000000
vt 0.000000 0.000000
vt 0.000000 0.000000
vt 0.000000 0.000000
vt 0.000000 0.000000
vt 0.000000 0.000000
vt 0.000000 0.000000
vt 0.000000 0.000000
vt 0.000000 0.000000
vt 0.000000 0.000000
vt 0.000000 0.000000
vt 0.000000 0.000000
vt 0.000000 0.000000
vt 0.000000 0.000000
vt 0.000000 0.000000
vt 0.000000 0.000000
vt 0.000000 0.000000
vt 0.000000 0.000000
vt 0.000000 0.000000
vt 0.000000 0.000000
vt 0.000000 0.000000
vt 0.507732 0.620607
vt 0.507705 0.620603
vt 0.507618 0.620603
vt 0.503853 0.620603
vt 0.503568 0.620613
vt 0.503289 0.620642
vt 0.502850 0.620727
vt 0.502689 0.620772
vt 0.502661 0.620776
vt 0.502521 0.620820
vt 0.502230 0.620931
vt 0.501943 0.621068
vt 0.501659 0.621234
vt 0.501615 0.621262
vt 0.501587 0.621275
vt 0.501333 0.621460
vt 0.501057 0.621702
vt 0.500992 0.621768
vt 0.500761 0.622030
vt 0.500735 0.622054
vt 0.500711 0.622085
vt 0.500468 0.622442
vt 0.500275 0.622826
vt 0.500234 0.622927
vt 0.500207 0.623001
vt 0.500188 0.623034
vt 0.500188 0.623034
vt 0.500081 0.623406
vt 0.500015 0.623862
vt 0.500008 0.624077
vt 0.500000 0.624121
vt 0.500000 0.624191
vt 0.500000 0.625879
vt 0.500000 0.625896
vt 0.500036 0.626348
vt 0.500135 0.626785
vt 0.500182 0.626928
vt 0.500182 0.626928
vt 0.500188 0.626966
vt 0.500216 0.627040
vt 0.500381 0.627403
vt 0.500586 0.627738
vt 0.500719 0.627916
vt 0.500719 0.627917
vt 0.500735 0.627946
vt 0.500841 0.628073
vt 0.500968 0.628210
vt 0.501214 0.628440
vt 0.501477 0.628644
vt 0.501565 0.628704
vt 0.501587 0.628724
vt 0.501775 0.628841
vt 0.502183 0.629048
vt 0.502454 0.629154
vt 0.502636 0.629213
vt 0.502661 0.629224
vt 0.502822 0.629268
vt 0.503363 0.629367
vt 0.503826 0.629393
vt 0.503853 0.629397
vt 0.503940 0.629397
vt 0.507705 0.629397
vt 0.507990 0.629387
vt 0.508269 0.629358
vt 0.508708 0.629273
vt 0.508869 0.629228
vt 0.508896 0.629224
vt 0.509037 0.629180
vt 0.509328 0.629069
vt 0.509615 0.628932
vt 0.509899 0.628766
vt 0.509943 0.628738
vt 0.509970 0.628725
vt 0.510225 0.628540
vt 0.510500 0.628298
vt 0.510566 0.628232
vt 0.510797 0.627970
vt 0.510822 0.627946
vt 0.510847 0.627915
vt 0.511090 0.627558
vt 0.511283 0.627174
vt 0.511323 0.627073
vt 0.511351 0.626999
vt 0.511369 0.626966
vt 0.511370 0.626966
vt 0.511477 0.626594
vt 0.511543 0.626138
vt 0.511550 0.625923
vt 0.511558 0.625879
vt 0.511558 0.624191
vt 0.511558 0.624121
vt 0.511558 0.624104
vt 0.511522 0.623652
vt 0.511423 0.623214
vt 0.511374 0.623072
vt 0.511367 0.623034
vt 0.511342 0.622960
vt 0.511176 0.622597
vt 0.510972 0.622262
vt 0.510839 0.622084
vt 0.510839 0.622083
vt 0.510823 0.622054
vt 0.510716 0.621927
vt 0.510590 0.621790
vt 0.510343 0.621560
vt 0.510081 0.621356
vt 0.509993 0.621296
vt 0.509971 0.621276
vt 0.509783 0.621159
vt 0.509375 0.620952
vt 0.509104 0.620846
vt 0.508922 0.620787
vt 0.508897 0.620776
vt 0.508736 0.620731
vt 0.508195 0.620633
vt 0.000000 0.000000
vt 0.000000 0.000000
vt 0.000000 0.000000
vt 0.000000 0.000000
vt 0.000000 0.000000
vt 0.000000 0.000000
vt 0.000000 0.000000
vt 0.000000 0.000000
vt 0.000000 0.000000
vt 0.000000 0.000000
vn 0.0523 -0.9986 0.0000
vn 0.9986 -0.0523 0.0000
vn 0.9877 -0.1564 0.0000
vn 0.9659 -0.2588 0.0000
vn 0.9336 -0.3583 0.0000
vn 0.8910 -0.4540 0.0000
vn 0.8387 -0.5446 0.0000
vn 0.7771 -0.6293 0.0000
vn 0.7071 -0.7071 0.0000
vn 0.6293 -0.7771 0.0000
vn 0.5447 -0.8386 0.0000
vn 0.4540 -0.8910 0.0000
vn 0.3583 -0.9336 0.0000
vn 0.2588 -0.9659 0.0000
vn 0.1565 -0.9877 0.0000
vn -0.9989 0.0000 0.0478
vn -0.9897 0.0000 0.1431
vn -0.9887 -0.0000 0.1499
vn -0.9714 0.0000 0.2376
vn -0.9697 0.0000 0.2443
vn -0.9437 0.0000 0.3307
vn -0.9390 -0.0001 0.3439
vn -0.9067 0.0000 0.4218
vn -0.9006 0.0000 0.4346
vn -0.8602 0.0000 0.5100
vn -0.8490 -0.0001 0.5285
vn -0.8041 0.0000 0.5945
vn -0.7908 0.0000 0.6120
vn -0.7385 0.0000 0.6743
vn -0.7180 -0.0001 0.6960
vn -0.6636 0.0000 0.7481
vn -0.6405 0.0000 0.7680
vn -0.5796 0.0000 0.8149
vn -0.5476 -0.0001 0.8368
vn -0.4873 0.0000 0.8732
vn -0.4525 0.0000 0.8918
vn -0.3876 0.0000 0.9218
vn -0.3428 -0.0002 0.9394
vn -0.2816 0.0000 0.9595
vn -0.2346 0.0000 0.9721
vn -0.1709 0.0000 0.9853
vn -0.1144 -0.0002 0.9934
vn -0.0573 0.0000 0.9984
vn 0.1138 -0.2331 0.9658
vn 0.1125 -0.4498 0.8860
vn 0.1104 -0.6365 0.7633
vn 0.1083 -0.7861 0.6085
vn 0.1064 -0.8955 0.4322
vn 0.1050 -0.9643 0.2430
vn 0.9986 -0.0523 0.0054
vn 0.9876 -0.1564 0.0161
vn 0.9753 -0.1810 0.1264
vn 0.9656 -0.2587 0.0267
vn 0.9330 -0.3581 0.0369
vn 0.9143 -0.3936 0.0958
vn 0.8900 -0.4535 0.0466
vn 0.8374 -0.5438 0.0559
vn 0.8095 -0.5788 0.0978
vn 0.7755 -0.6280 0.0646
vn 0.7052 -0.7052 0.0726
vn 0.6690 -0.7356 0.1059
vn 0.6273 -0.7747 0.0797
vn 0.5427 -0.8355 0.0859
vn 0.4994 -0.8588 0.1143
vn 0.4521 -0.8873 0.0913
vn 0.3567 -0.9293 0.0956
vn 0.3085 -0.9436 0.1206
vn 0.2576 -0.9612 0.0989
vn 0.0522 -0.9975 0.0476
vn 0.1557 -0.9826 0.1011
vn 0.1042 -0.9868 0.1241
vn 0.1621 -0.9756 0.1480
vn 0.1055 -0.9338 0.3418
vn 0.1335 -0.9440 0.3016
vn 0.3098 -0.9057 0.2893
vn 0.5011 -0.8244 0.2633
vn 0.5010 -0.8244 0.2634
vn 0.6702 -0.7070 0.2259
vn 0.8098 -0.5589 0.1786
vn 0.8098 -0.5589 0.1785
vn 0.9140 -0.3865 0.1235
vn 0.9140 -0.3865 0.1234
vn 0.9783 -0.1975 0.0631
vn 0.9986 -0.0497 0.0159
vn 0.1071 -0.8440 0.5255
vn 0.1334 -0.8597 0.4932
vn 0.3140 -0.8235 0.4725
vn 0.5067 -0.7478 0.4290
vn 0.6757 -0.6394 0.3668
vn 0.8139 -0.5039 0.2891
vn 0.8140 -0.5039 0.2891
vn 0.9162 -0.3476 0.1994
vn 0.9789 -0.1773 0.1017
vn 0.9789 -0.1773 0.1016
vn 0.9987 -0.0446 0.0256
vn 0.1091 -0.7138 0.6918
vn 0.1326 -0.7320 0.6683
vn 0.3195 -0.6998 0.6389
vn 0.5140 -0.6335 0.5784
vn 0.6827 -0.5396 0.4927
vn 0.6828 -0.5396 0.4926
vn 0.8192 -0.4236 0.3866
vn 0.8192 -0.4235 0.3867
vn 0.9190 -0.2912 0.2658
vn 0.9797 -0.1482 0.1353
vn 0.9797 -0.1482 0.1352
vn 0.9987 -0.0372 0.0340
vn 0.1111 -0.5442 0.8316
vn 0.1308 -0.5621 0.8167
vn 0.3254 -0.5361 0.7789
vn 0.5216 -0.4837 0.7028
vn 0.6901 -0.4103 0.5962
vn 0.6900 -0.4103 0.5962
vn 0.8246 -0.3207 0.4661
vn 0.8246 -0.3208 0.4661
vn 0.9218 -0.2197 0.3193
vn 0.9804 -0.1116 0.1622
vn 0.9804 -0.1116 0.1621
vn 0.9988 -0.0280 0.0407
vn 0.1127 -0.3406 0.9334
vn 0.1273 -0.3550 0.9262
vn 0.3302 -0.3378 0.8814
vn 0.5279 -0.3039 0.7930
vn 0.5280 -0.3039 0.7930
vn 0.6961 -0.2569 0.6704
vn 0.8290 -0.2002 0.5223
vn 0.8289 -0.2002 0.5223
vn 0.9241 -0.1367 0.3568
vn 0.9241 -0.1368 0.3568
vn 0.9811 -0.0693 0.1808
vn 0.9988 -0.0174 0.0454
vn 0.1136 -0.1136 0.9870
vn 0.1216 -0.1216 0.9851
vn 0.3330 -0.1155 0.9358
vn 0.5316 -0.1037 0.8406
vn 0.6995 -0.0875 0.7093
vn 0.8314 -0.0681 0.5515
vn 0.9254 -0.0464 0.3762
vn 0.9814 -0.0235 0.1905
vn 0.9814 -0.0235 0.1906
vn 0.9988 -0.0059 0.0478
vn 0.0000 0.0000 -1.0000
vn 0.0000 -1.0000 0.0000
vn 1.0000 0.0000 0.0000
vn -0.9833 -0.1046 -0.1491
vn -0.9338 -0.1055 -0.3420
vn -0.8441 -0.1071 -0.5254
vn -0.7138 -0.1090 -0.6918
vn -0.5442 -0.1111 -0.8316
vn -0.3407 -0.1127 -0.9334
vn -0.1136 -0.1136 -0.9870
vn -0.2331 -0.1138 -0.9658
vn -0.1216 -0.1216 -0.9851
vn -0.1155 -0.3330 -0.9358
vn -0.1037 -0.5316 -0.8406
vn -0.0875 -0.6995 -0.7092
vn -0.0875 -0.6995 -0.7093
vn -0.0681 -0.8314 -0.5515
vn -0.0464 -0.9254 -0.3761
vn -0.0235 -0.9814 -0.1905
vn -0.0059 -0.9988 -0.0477
vn -0.4496 -0.1124 -0.8861
vn -0.3550 -0.1273 -0.9262
vn -0.3378 -0.3302 -0.8814
vn -0.3039 -0.5280 -0.7930
vn -0.2570 -0.6961 -0.6704
vn -0.2569 -0.6961 -0.6704
vn -0.2002 -0.8289 -0.5223
vn -0.1367 -0.9241 -0.3568
vn -0.0693 -0.9811 -0.1808
vn -0.0693 -0.9810 -0.1809
vn -0.0174 -0.9988 -0.0453
vn -0.6366 -0.1104 -0.7633
vn -0.5621 -0.1308 -0.8167
vn -0.5361 -0.3253 -0.7790
vn -0.4837 -0.5216 -0.7028
vn -0.4103 -0.6901 -0.5962
vn -0.4103 -0.6900 -0.5962
vn -0.3208 -0.8246 -0.4661
vn -0.3208 -0.8245 -0.4661
vn -0.2197 -0.9218 -0.3193
vn -0.2197 -0.9219 -0.3192
vn -0.1116 -0.9804 -0.1621
vn -0.1116 -0.9804 -0.1622
vn -0.0280 -0.9988 -0.0407
vn -0.7862 -0.1083 -0.6084
vn -0.7320 -0.1326 -0.6683
vn -0.6998 -0.3195 -0.6389
vn -0.6335 -0.5140 -0.5783
vn -0.6335 -0.5140 -0.5784
vn -0.5396 -0.6828 -0.4926
vn -0.5396 -0.6828 -0.4927
vn -0.4235 -0.8192 -0.3867
vn -0.2911 -0.9190 -0.2658
vn -0.1482 -0.9797 -0.1352
vn -0.1482 -0.9796 -0.1355
vn -0.0372 -0.9987 -0.0338
vn -0.8955 -0.1064 -0.4321
vn -0.8597 -0.1333 -0.4932
vn -0.8235 -0.3140 -0.4724
vn -0.8235 -0.3140 -0.4725
vn -0.7478 -0.5067 -0.4290
vn -0.6394 -0.6757 -0.3668
vn -0.5039 -0.8139 -0.2891
vn -0.3475 -0.9162 -0.1993
vn -0.3475 -0.9162 -0.1994
vn -0.1773 -0.9789 -0.1017
vn -0.1773 -0.9789 -0.1018
vn -0.0445 -0.9987 -0.0260
vn -0.9643 -0.1050 -0.2430
vn -0.9440 -0.1335 -0.3016
vn -0.9057 -0.3098 -0.2893
vn -0.8244 -0.5011 -0.2634
vn -0.7070 -0.6702 -0.2259
vn -0.5589 -0.8098 -0.1785
vn -0.3865 -0.9140 -0.1235
vn -0.1975 -0.9783 -0.0631
vn -0.1975 -0.9783 -0.0632
vn -0.0497 -0.9986 -0.0156
vn -0.9934 -0.1044 -0.0475
vn -0.9858 -0.1335 -0.1014
vn -0.9465 -0.3075 -0.0974
vn -0.8626 -0.4980 -0.0887
vn -0.7410 -0.6672 -0.0762
vn -0.5867 -0.8075 -0.0604
vn -0.4063 -0.9128 -0.0417
vn -0.4063 -0.9128 -0.0418
vn -0.2079 -0.9779 -0.0214
vn -0.2079 -0.9779 -0.0215
vn -0.0523 -0.9986 -0.0056
vn -0.0573 0.0000 -0.9984
vn -0.1144 -0.0002 -0.9934
vn -0.7383 -0.0004 -0.6744
vn -0.6636 0.0000 -0.7481
vn -0.5476 0.0000 -0.8368
vn -0.5795 -0.0002 -0.8150
vn -0.4525 0.0001 -0.8918
vn -0.4873 0.0000 -0.8732
vn -0.3428 0.0000 -0.9394
vn -0.3875 -0.0003 -0.9219
vn -0.2347 0.0002 -0.9721
vn -0.2816 0.0000 -0.9595
vn -0.1709 0.0000 -0.9853
vn -0.6405 0.0006 -0.7680
vn -0.7180 0.0000 -0.6960
vn -0.8041 0.0000 -0.5945
vn -0.7908 0.0001 -0.6120
vn -0.8601 -0.0001 -0.5101
vn -0.8490 0.0000 -0.5285
vn -0.9067 0.0000 -0.4218
vn -0.9006 0.0001 -0.4346
vn -0.9437 -0.0001 -0.3308
vn -0.9390 0.0000 -0.3439
vn -0.9714 0.0000 -0.2376
vn -0.9697 0.0000 -0.2443
vn -0.9897 -0.0000 -0.1431
vn -0.9887 0.0000 -0.1499
vn -0.9989 0.0000 -0.0478
vn 0.0000 -0.9989 -0.0477
vn 0.0000 -0.9887 -0.1500
vn -0.0022 -0.9817 -0.1906
vn 0.0000 -0.9697 -0.2444
vn 0.0000 -0.9391 -0.3438
vn -0.0020 -0.9264 -0.3765
vn 0.0000 -0.9006 -0.4346
vn 0.0000 -0.8490 -0.5285
vn -0.0018 -0.8333 -0.5528
vn 0.0000 -0.7909 -0.6119
vn 0.0000 -0.7180 -0.6960
vn -0.0015 -0.7022 -0.7120
vn 0.0000 -0.6404 -0.7680
vn 0.0000 -0.5476 -0.8367
vn -0.0011 -0.5345 -0.8452
vn 0.0000 -0.4524 -0.8918
vn 0.0000 -0.3428 -0.9394
vn -0.0006 -0.3353 -0.9421
vn 0.0000 -0.2346 -0.9721
vn 0.0000 -0.1144 -0.9934
vn -0.2331 -0.1138 0.9658
vn -0.4496 -0.1124 0.8861
vn -0.6366 -0.1104 0.7633
vn -0.7862 -0.1083 0.6084
vn -0.8955 -0.1064 0.4321
vn -0.9643 -0.1050 0.2430
vn -0.9934 -0.1044 0.0475
vn -0.9833 -0.1046 0.1491
vn -0.9858 -0.1335 0.1014
vn -0.9465 -0.3075 0.0974
vn -0.8626 -0.4980 0.0887
vn -0.7410 -0.6672 0.0762
vn -0.5867 -0.8075 0.0604
vn -0.5867 -0.8075 0.0603
vn -0.4063 -0.9128 0.0417
vn -0.4063 -0.9128 0.0418
vn -0.2079 -0.9779 0.0214
vn -0.2079 -0.9779 0.0215
vn -0.0523 -0.9986 0.0056
vn -0.9338 -0.1055 0.3420
vn -0.9440 -0.1335 0.3016
vn -0.9057 -0.3098 0.2893
vn -0.9057 -0.3098 0.2894
vn -0.8243 -0.5011 0.2634
vn -0.8244 -0.5011 0.2633
vn -0.7070 -0.6702 0.2259
vn -0.5589 -0.8098 0.1785
vn -0.3865 -0.9140 0.1235
vn -0.1975 -0.9783 0.0632
vn -0.1975 -0.9783 0.0628
vn -0.0497 -0.9986 0.0156
vn -0.8441 -0.1071 0.5254
vn -0.8597 -0.1333 0.4932
vn -0.8235 -0.3140 0.4725
vn -0.7478 -0.5067 0.4290
vn -0.6394 -0.6757 0.3668
vn -0.5039 -0.8139 0.2892
vn -0.5039 -0.8139 0.2891
vn -0.3475 -0.9162 0.1994
vn -0.3475 -0.9162 0.1993
vn -0.1773 -0.9789 0.1018
vn -0.1773 -0.9789 0.1016
vn -0.0445 -0.9987 0.0260
vn -0.7138 -0.1090 0.6919
vn -0.7320 -0.1326 0.6683
vn -0.6998 -0.3195 0.6389
vn -0.6335 -0.5140 0.5783
vn -0.6335 -0.5140 0.5784
vn -0.5396 -0.6828 0.4926
vn -0.4235 -0.8192 0.3867
vn -0.4236 -0.8192 0.3866
vn -0.2911 -0.9190 0.2659
vn -0.2911 -0.9190 0.2657
vn -0.1482 -0.9796 0.1354
vn -0.1482 -0.9797 0.1350
vn -0.0372 -0.9987 0.0338
vn -0.5442 -0.1111 0.8316
vn -0.5621 -0.1308 0.8167
vn -0.5361 -0.3253 0.7790
vn -0.5361 -0.3253 0.7789
vn -0.4837 -0.5216 0.7028
vn -0.4103 -0.6901 0.5962
vn -0.4103 -0.6900 0.5962
vn -0.3208 -0.8245 0.4661
vn -0.2197 -0.9219 0.3192
vn -0.1116 -0.9804 0.1622
vn -0.0280 -0.9988 0.0407
vn -0.3407 -0.1127 0.9334
vn -0.3550 -0.1273 0.9262
vn -0.3378 -0.3302 0.8814
vn -0.3039 -0.5280 0.7930
vn -0.2570 -0.6961 0.6704
vn -0.2569 -0.6961 0.6704
vn -0.2002 -0.8289 0.5223
vn -0.2002 -0.8289 0.5224
vn -0.1367 -0.9241 0.3568
vn -0.0693 -0.9811 0.1809
vn -0.0174 -0.9988 0.0452
vn -0.1136 -0.1136 0.9870
vn -0.1216 -0.1216 0.9851
vn -0.1155 -0.3330 0.9358
vn -0.1037 -0.5316 0.8406
vn -0.0875 -0.6995 0.7092
vn -0.0875 -0.6995 0.7093
vn -0.0681 -0.8314 0.5515
vn -0.0464 -0.9254 0.3761
vn -0.0235 -0.9814 0.1905
vn -0.0059 -0.9988 0.0477
vn 0.9989 0.0000 -0.0478
vn 0.9897 0.0000 -0.1431
vn 0.9817 -0.0002 -0.1905
vn 0.9714 0.0000 -0.2376
vn 0.9437 0.0000 -0.3307
vn 0.9264 -0.0002 -0.3766
vn 0.9067 0.0000 -0.4218
vn 0.8602 0.0000 -0.5100
vn 0.8333 -0.0002 -0.5528
vn 0.8041 0.0000 -0.5945
vn 0.7385 0.0000 -0.6742
vn 0.7022 -0.0002 -0.7120
vn 0.6636 0.0000 -0.7481
vn 0.5796 0.0000 -0.8149
vn 0.5345 -0.0002 -0.8452
vn 0.4873 0.0000 -0.8732
vn 0.3876 0.0000 -0.9218
vn 0.3353 -0.0002 -0.9421
vn 0.2816 0.0000 -0.9595
vn 0.1709 0.0000 -0.9853
vn 0.1144 -0.0002 -0.9934
vn 0.0573 0.0000 -0.9984
vn 0.0573 0.0000 0.9984
vn 0.1144 -0.0002 0.9934
vn 0.1709 0.0000 0.9853
vn 0.2816 0.0000 0.9595
vn 0.3353 -0.0002 0.9421
vn 0.3876 0.0000 0.9218
vn 0.4873 0.0000 0.8732
vn 0.5345 -0.0002 0.8452
vn 0.5796 0.0000 0.8149
vn 0.8333 0.0000 0.5528
vn 0.8600 -0.0004 0.5103
vn 0.8041 0.0000 0.5945
vn 0.7022 0.0000 0.7120
vn 0.7383 -0.0004 0.6744
vn 0.6636 0.0000 0.7481
vn 0.9897 -0.0004 0.1435
vn 0.9714 0.0000 0.2376
vn 0.9264 0.0000 0.3766
vn 0.9436 -0.0004 0.3311
vn 0.9067 0.0000 0.4218
vn 0.9817 0.0000 0.1905
vn 0.9989 0.0000 0.0478
vn 0.0000 -0.9989 0.0477
vn 0.0000 -0.9887 0.1500
vn -0.0022 -0.9817 0.1906
vn 0.0000 -0.9697 0.2444
vn 0.0000 -0.9391 0.3438
vn -0.0020 -0.9264 0.3765
vn 0.0000 -0.9006 0.4346
vn 0.0000 -0.8490 0.5285
vn -0.0018 -0.8333 0.5528
vn 0.0000 -0.7909 0.6119
vn 0.0000 -0.7180 0.6960
vn -0.0015 -0.7022 0.7120
vn 0.0000 -0.6404 0.7680
vn 0.0000 -0.5476 0.8367
vn -0.0011 -0.5345 0.8452
vn 0.0000 -0.4524 0.8918
vn 0.0000 -0.3428 0.9394
vn -0.0006 -0.3353 0.9421
vn 0.0000 -0.2346 0.9721
vn 0.0000 -0.1144 0.9934
vn -0.8387 0.5447 0.0000
vn -0.7071 0.7071 0.0000
vn -0.0523 0.9986 0.0000
vn -0.1564 0.9877 0.0000
vn -0.2588 0.9659 0.0000
vn -0.3583 0.9336 0.0000
vn -0.4540 0.8910 0.0000
vn -0.5447 0.8387 0.0000
vn -0.6293 0.7771 0.0000
vn -0.7771 0.6293 0.0000
vn -0.8910 0.4540 0.0000
vn -0.9336 0.3584 0.0000
vn -0.9986 0.0523 0.0000
vn -0.9877 0.1564 0.0000
vn -0.9659 0.2588 0.0000
vn 0.1055 -0.9338 -0.3418
vn 0.1071 -0.8440 -0.5255
vn 0.1091 -0.7138 -0.6918
vn 0.1111 -0.5442 -0.8316
vn 0.1127 -0.3406 -0.9334
vn 0.1136 -0.1136 -0.9870
vn 0.9986 -0.0523 -0.0054
vn 0.9779 -0.2079 -0.0213
vn 0.9751 -0.1544 -0.1593
vn 0.9656 -0.2587 -0.0267
vn 0.9128 -0.4064 -0.0418
vn 0.9262 -0.3555 -0.1257
vn 0.8900 -0.4535 -0.0466
vn 0.8075 -0.5867 -0.0604
vn 0.8324 -0.5406 -0.1222
vn 0.7755 -0.6280 -0.0646
vn 0.7052 -0.7052 -0.0726
vn 0.6690 -0.7356 -0.1059
vn 0.6273 -0.7747 -0.0797
vn 0.5427 -0.8355 -0.0859
vn 0.4994 -0.8588 -0.1143
vn 0.1138 -0.2331 -0.9658
vn 0.1216 -0.1216 -0.9851
vn 0.3330 -0.1155 -0.9358
vn 0.5316 -0.1037 -0.8406
vn 0.6995 -0.0875 -0.7093
vn 0.6995 -0.0875 -0.7092
vn 0.8314 -0.0681 -0.5515
vn 0.9254 -0.0464 -0.3762
vn 0.9814 -0.0235 -0.1905
vn 0.9988 -0.0059 -0.0478
vn 0.1125 -0.4498 -0.8860
vn 0.1273 -0.3550 -0.9262
vn 0.3302 -0.3378 -0.8814
vn 0.5279 -0.3039 -0.7930
vn 0.5280 -0.3039 -0.7930
vn 0.6961 -0.2569 -0.6704
vn 0.8289 -0.2002 -0.5223
vn 0.9241 -0.1368 -0.3568
vn 0.9811 -0.0693 -0.1808
vn 0.9811 -0.0693 -0.1807
vn 0.9988 -0.0174 -0.0454
vn 0.1104 -0.6365 -0.7633
vn 0.1308 -0.5621 -0.8167
vn 0.3254 -0.5361 -0.7789
vn 0.5216 -0.4837 -0.7028
vn 0.6900 -0.4103 -0.5962
vn 0.6901 -0.4103 -0.5962
vn 0.8246 -0.3207 -0.4661
vn 0.8246 -0.3208 -0.4660
vn 0.9218 -0.2197 -0.3193
vn 0.9804 -0.1116 -0.1622
vn 0.9804 -0.1116 -0.1621
vn 0.9988 -0.0280 -0.0407
vn 0.1083 -0.7861 -0.6085
vn 0.1326 -0.7320 -0.6683
vn 0.3195 -0.6998 -0.6389
vn 0.5140 -0.6335 -0.5784
vn 0.6828 -0.5396 -0.4926
vn 0.6827 -0.5396 -0.4926
vn 0.8192 -0.4236 -0.3866
vn 0.8192 -0.4235 -0.3867
vn 0.9190 -0.2912 -0.2658
vn 0.9190 -0.2912 -0.2659
vn 0.9797 -0.1482 -0.1353
vn 0.9797 -0.1482 -0.1352
vn 0.9987 -0.0372 -0.0340
vn 0.1064 -0.8955 -0.4322
vn 0.1334 -0.8597 -0.4932
vn 0.3140 -0.8235 -0.4725
vn 0.5067 -0.7478 -0.4290
vn 0.6757 -0.6395 -0.3668
vn 0.6757 -0.6394 -0.3669
vn 0.8139 -0.5039 -0.2891
vn 0.9162 -0.3476 -0.1994
vn 0.9789 -0.1773 -0.1017
vn 0.9987 -0.0446 -0.0256
vn 0.1050 -0.9643 -0.2430
vn 0.1335 -0.9440 -0.3016
vn 0.3098 -0.9057 -0.2893
vn 0.5010 -0.8244 -0.2633
vn 0.5011 -0.8243 -0.2634
vn 0.6702 -0.7070 -0.2259
vn 0.6702 -0.7070 -0.2260
vn 0.8098 -0.5589 -0.1785
vn 0.9140 -0.3865 -0.1235
vn 0.9140 -0.3866 -0.1234
vn 0.9783 -0.1975 -0.0631
vn 0.9783 -0.1975 -0.0632
vn 0.9986 -0.0497 -0.0159
vn 0.4521 -0.8873 -0.0913
vn 0.3567 -0.9293 -0.0956
vn 0.3085 -0.9436 -0.1206
vn 0.2576 -0.9612 -0.0989
vn 0.1039 -0.9894 -0.1018
vn 0.1548 -0.9772 -0.1449
vn 0.1621 -0.9756 -0.1480
vn 0.0522 -0.9975 -0.0476
vn -0.0523 -0.9986 0.0000
vn -0.2079 -0.9781 0.0000
vn -0.4067 -0.9136 0.0000
vn -0.5878 -0.8090 0.0000
vn -0.7431 -0.6691 0.0000
vn -0.8660 -0.5000 0.0000
vn -0.9511 -0.3090 0.0000
vn -0.9945 -0.1045 0.0000
vn 0.0000 1.0000 0.0000
vn 0.0000 1.0000 -0.0001
vn -1.0000 0.0000 0.0000
vn -0.0028 0.0000 -1.0000
vn -0.3122 -0.0008 -0.9500
vn -0.7308 -0.0002 -0.6826
vn -0.5962 -0.0008 -0.8029
vn -0.7385 -0.0000 -0.6743
vn -0.7903 -0.0005 -0.6128
vn -0.9312 -0.0005 -0.3645
vn 0.0000 0.0000 1.0000
vn 0.0028 0.0000 1.0000
vn 0.5210 -0.0003 0.8535
vn 0.7308 -0.0002 0.6826
vn 0.5962 -0.0008 0.8029
vn 0.7385 -0.0000 0.6743
vn 0.7903 -0.0005 0.6128
vn 0.9897 0.0000 0.1431
vn 0.9312 -0.0005 0.3645
vn -0.9947 -0.0001 0.1031
vn -0.9816 -0.0004 0.1911
vn -0.8633 -0.0006 0.5046
vn -0.7071 -0.0004 0.7071
vn -0.1439 -0.0003 0.9896
vn -0.3734 -0.0008 0.9277
vn 0.9877 0.1564 0.0000
vn 0.9986 0.0523 0.0000
vn 0.9336 0.3584 0.0000
vn 0.9659 0.2588 0.0000
vn 0.8910 0.4540 0.0000
vn 0.8387 0.5447 0.0000
vn 0.7771 0.6293 0.0000
vn 0.7071 0.7071 0.0000
vn 0.6293 0.7771 0.0000
vn 0.5447 0.8387 0.0000
vn 0.4540 0.8910 0.0000
vn 0.3583 0.9336 0.0000
vn 0.2588 0.9659 0.0000
vn 0.1564 0.9877 0.0000
vn 0.0523 0.9986 0.0000
vn 0.9947 -0.0001 -0.1031
vn 0.9816 -0.0004 -0.1911
vn 0.8633 -0.0006 -0.5046
vn 0.7385 0.0000 -0.6743
vn 0.7071 -0.0004 -0.7071
vn 0.1439 -0.0003 -0.9896
vn 0.3734 -0.0008 -0.9277
vn 0.9839 -0.0001 0.1788
vn -0.2212 -0.0004 -0.9752
vn 0.3459 -0.0009 -0.9383
vn 0.9343 -0.0000 -0.3565
vn -0.2768 -0.0000 0.9609
vn 0.6609 -0.0007 -0.7505
vn -0.9515 -0.0008 -0.3076
vn -0.3459 -0.0009 0.9383
vn -0.7510 -0.0002 0.6603
vn 0.9533 -0.0000 -0.3021
vn 0.8368 -0.0009 -0.5475
vn -0.6609 -0.0007 0.7505
vn 0.4495 -0.0004 -0.8933
vn 0.3434 0.0000 -0.9392
vn 0.7510 -0.0002 -0.6603
vn 0.5619 -0.0000 -0.8272
vn 0.3246 0.0000 0.9458
vn -0.0786 -0.0000 -0.9969
vn -0.3551 -0.0011 -0.9348
vn 0.0343 -0.0008 -0.9994
vn 0.4151 -0.0000 0.9098
vn -0.9839 -0.0001 -0.1788
vn 0.9515 -0.0008 0.3076
vn -0.9027 -0.0002 0.4302
vn 0.2212 -0.0004 0.9752
vn 0.8092 -0.0000 -0.5876
vn -0.8368 -0.0009 0.5475
vn -0.6410 0.0000 -0.7676
vn 0.2768 -0.0000 -0.9609
vn 0.9027 -0.0002 -0.4302
vn -0.4495 -0.0004 0.8933
vn 0.6410 0.0000 0.7676
vn -0.3468 0.0000 -0.9380
vn 0.8922 -0.0001 0.4516
vn 0.9643 -0.0008 -0.2649
vn 0.9984 -0.0006 0.0562
vn 0.3238 -0.0009 0.9461
vn -0.8250 -0.0009 -0.5652
vn -0.0343 -0.0008 0.9994
vn 0.8250 -0.0009 0.5652
vn -0.3446 0.0000 0.9387
vn -0.9643 0.0000 -0.2647
vn -0.9994 0.0000 0.0345
vn -0.9533 -0.0000 0.3021
vn 0.0786 -0.0000 0.9969
vn 0.9994 0.0000 -0.0345
vn -0.6181 -0.0000 0.7861
vn 0.6222 -0.0009 0.7829
vn -0.6226 -0.0010 -0.7825
vn -0.5210 -0.0003 -0.8535
vn -0.8922 -0.0001 -0.4516
vn -0.5619 -0.0000 0.8272
vn 0.6180 -0.0000 -0.7861
vn 0.8490 0.0000 0.5285
vn -0.9984 -0.0006 -0.0563
vn 0.6788 -0.0000 0.7343
vn -0.9643 -0.0008 0.2649
vn 0.9643 0.0000 0.2647
vn -0.6788 -0.0000 -0.7343
vn -0.4151 -0.0000 -0.9098
vn -0.9343 -0.0000 0.3565
vn -0.8092 -0.0000 0.5876
usemtl None
s off
f 1/1/1 2/2/1 3/3/1
f 4/4/2 5/5/2 6/6/2
f 5/5/2 7/7/2 6/6/2
f 6/6/3 7/7/3 8/8/3
f 7/7/3 9/9/3 8/8/3
f 8/8/4 9/9/4 10/10/4
f 9/9/4 11/11/4 10/10/4
f 10/10/5 11/11/5 12/12/5
f 11/11/5 13/13/5 12/12/5
f 12/12/6 13/13/6 14/14/6
f 13/13/6 15/15/6 14/14/6
f 14/14/7 15/15/7 16/16/7
f 15/15/7 17/17/7 16/16/7
f 16/16/8 17/17/8 18/18/8
f 17/17/8 19/19/8 18/18/8
f 18/18/9 19/19/9 20/20/9
f 19/19/9 21/21/9 20/20/9
f 20/20/10 21/21/10 22/22/10
f 21/21/10 23/23/10 22/22/10
f 22/22/11 23/23/11 24/24/11
f 23/23/11 25/25/11 24/24/11
f 24/24/12 25/25/12 26/26/12
f 25/25/12 27/27/12 26/26/12
f 26/26/13 27/27/13 28/28/13
f 27/27/13 29/29/13 28/28/13
f 28/28/14 29/29/14 30/30/14
f 29/29/14 31/31/14 30/30/14
f 30/30/15 31/31/15 3/3/15
f 31/31/15 32/32/15 3/3/15
f 3/3/1 32/32/1 1/1/1
f 33/33/16 34/34/16 35/35/16
f 34/34/16 36/36/16 35/35/16
f 36/36/17 34/34/17 37/37/17
f 34/34/18 38/38/18 37/37/18
f 37/37/19 38/38/19 39/39/19
f 38/38/20 40/40/20 39/39/20
f 39/39/21 40/40/21 41/41/21
f 40/40/22 42/42/22 41/41/22
f 41/41/23 42/42/23 43/43/23
f 42/42/24 44/44/24 43/43/24
f 43/43/25 44/44/25 45/45/25
f 44/44/26 46/46/26 45/45/26
f 45/45/27 46/46/27 47/47/27
f 46/46/28 48/48/28 47/47/28
f 47/47/29 48/48/29 49/49/29
f 48/48/30 50/50/30 49/49/30
f 49/49/31 50/50/31 51/51/31
f 50/50/32 52/52/32 51/51/32
f 51/51/33 52/52/33 53/53/33
f 52/52/34 54/54/34 53/53/34
f 53/53/35 54/54/35 55/55/35
f 54/54/36 56/56/36 55/55/36
f 55/55/37 56/56/37 57/57/37
f 56/56/38 58/58/38 57/57/38
f 57/57/39 58/58/39 59/59/39
f 58/58/40 60/60/40 59/59/40
f 59/59/41 60/60/41 61/61/41
f 60/60/42 62/62/42 61/61/42
f 61/61/43 62/62/43 63/63/43
f 64/64/44 65/65/44 66/66/44
f 67/67/45 68/68/45 69/69/45
f 70/70/46 71/71/46 72/72/46
f 73/73/47 74/74/47 75/75/47
f 76/76/48 77/77/48 78/78/48
f 79/79/49 80/80/49 81/81/49
f 5/5/50 82/82/50 7/7/50
f 7/7/51 82/82/51 9/9/51
f 82/82/52 83/83/52 9/9/52
f 9/9/53 83/83/53 11/11/53
f 11/11/54 83/83/54 13/13/54
f 83/83/55 84/84/55 13/13/55
f 13/13/56 84/84/56 15/15/56
f 15/15/57 84/84/57 17/17/57
f 84/84/58 85/85/58 17/17/58
f 17/17/59 85/85/59 19/19/59
f 19/19/60 85/85/60 21/21/60
f 85/85/61 86/86/61 21/21/61
f 21/21/62 86/86/62 23/23/62
f 23/23/63 86/86/63 25/25/63
f 86/86/64 87/87/64 25/25/64
f 25/25/65 87/87/65 27/27/65
f 27/27/66 87/87/66 29/29/66
f 87/87/67 81/81/67 29/29/67
f 29/29/68 81/81/68 31/31/68
f 88/88/69 1/1/69 32/32/69
f 31/31/70 81/81/70 32/32/70
f 81/81/71 80/80/71 32/32/71
f 32/32/72 80/80/72 88/88/72
f 77/77/73 79/79/73 78/78/73
f 79/79/74 81/81/74 78/78/74
f 78/78/75 81/81/75 89/89/75
f 81/81/75 87/87/75 89/89/75
f 89/89/76 87/87/76 90/90/76
f 87/87/77 86/86/77 90/90/77
f 90/90/78 86/86/78 91/91/78
f 86/86/78 85/85/78 91/91/78
f 91/91/79 85/85/79 92/92/79
f 85/85/80 84/84/80 92/92/80
f 92/92/81 84/84/81 93/93/81
f 84/84/82 83/83/82 93/93/82
f 93/93/83 83/83/83 94/94/83
f 83/83/83 82/82/83 94/94/83
f 94/94/84 82/82/84 5/5/84
f 74/74/85 76/76/85 75/75/85
f 76/76/86 78/78/86 75/75/86
f 75/75/87 78/78/87 95/95/87
f 78/78/87 89/89/87 95/95/87
f 95/95/88 89/89/88 96/96/88
f 89/89/88 90/90/88 96/96/88
f 96/96/89 90/90/89 97/97/89
f 90/90/89 91/91/89 97/97/89
f 97/97/90 91/91/90 98/98/90
f 91/91/91 92/92/91 98/98/91
f 98/98/92 92/92/92 99/99/92
f 92/92/92 93/93/92 99/99/92
f 99/99/93 93/93/93 100/100/93
f 93/93/94 94/94/94 100/100/94
f 100/100/95 94/94/95 5/5/95
f 71/71/96 73/73/96 72/72/96
f 73/73/97 75/75/97 72/72/97
f 72/72/98 75/75/98 101/101/98
f 75/75/98 95/95/98 101/101/98
f 101/101/99 95/95/99 102/102/99
f 95/95/99 96/96/99 102/102/99
f 102/102/100 96/96/100 103/103/100
f 96/96/101 97/97/101 103/103/101
f 103/103/102 97/97/102 104/104/102
f 97/97/103 98/98/103 104/104/103
f 104/104/104 98/98/104 105/105/104
f 98/98/104 99/99/104 105/105/104
f 105/105/105 99/99/105 106/106/105
f 99/99/106 100/100/106 106/106/106
f 106/106/107 100/100/107 5/5/107
f 68/68/108 70/70/108 69/69/108
f 70/70/109 72/72/109 69/69/109
f 69/69/110 72/72/110 107/107/110
f 72/72/110 101/101/110 107/107/110
f 107/107/111 101/101/111 108/108/111
f 101/101/111 102/102/111 108/108/111
f 108/108/112 102/102/112 109/109/112
f 102/102/113 103/103/113 109/109/113
f 109/109/114 103/103/114 110/110/114
f 103/103/115 104/104/115 110/110/115
f 110/110/116 104/104/116 111/111/116
f 104/104/116 105/105/116 111/111/116
f 111/111/117 105/105/117 112/112/117
f 105/105/118 106/106/118 112/112/118
f 112/112/119 106/106/119 5/5/119
f 65/65/120 67/67/120 66/66/120
f 67/67/121 69/69/121 66/66/121
f 66/66/122 69/69/122 113/113/122
f 69/69/122 107/107/122 113/113/122
f 113/113/123 107/107/123 114/114/123
f 107/107/124 108/108/124 114/114/124
f 114/114/125 108/108/125 115/115/125
f 108/108/125 109/109/125 115/115/125
f 115/115/126 109/109/126 116/116/126
f 109/109/127 110/110/127 116/116/127
f 116/116/128 110/110/128 117/117/128
f 110/110/129 111/111/129 117/117/129
f 117/117/130 111/111/130 118/118/130
f 111/111/130 112/112/130 118/118/130
f 118/118/131 112/112/131 5/5/131
f 119/119/132 64/64/132 120/120/132
f 64/64/133 66/66/133 120/120/133
f 120/120/134 66/66/134 121/121/134
f 66/66/134 113/113/134 121/121/134
f 121/121/135 113/113/135 122/122/135
f 113/113/135 114/114/135 122/122/135
f 122/122/136 114/114/136 123/123/136
f 114/114/136 115/115/136 123/123/136
f 123/123/137 115/115/137 124/124/137
f 115/115/137 116/116/137 124/124/137
f 124/124/138 116/116/138 125/125/138
f 116/116/138 117/117/138 125/125/138
f 125/125/139 117/117/139 126/126/139
f 117/117/140 118/118/140 126/126/140
f 126/126/141 118/118/141 5/5/141
f 127/127/142 128/128/142 129/129/142
f 130/130/142 131/131/142 132/132/142
f 129/129/142 130/130/142 127/127/142
f 130/130/142 132/132/142 127/127/142
f 127/127/142 132/132/142 395/133/142 396/134/142
f 132/132/142 440/135/142 395/133/142
f 133/136/143 134/137/143 1/1/143
f 134/137/143 2/2/143 1/1/143
f 137/138/144 138/139/144 445/140/144 422/141/144
f 138/139/144 397/142/144 445/140/144
f 139/143/145 140/144/145 141/145/145
f 142/146/146 143/147/146 144/148/146
f 145/149/147 146/150/147 147/151/147
f 148/152/148 149/153/148 150/154/148
f 151/155/149 152/156/149 153/157/149
f 154/158/150 155/159/150 156/160/150
f 157/161/151 130/130/151 158/162/151
f 155/159/152 157/161/152 156/160/152
f 157/161/153 158/162/153 156/160/153
f 156/160/154 158/162/154 159/163/154
f 158/162/154 160/164/154 159/163/154
f 159/163/155 160/164/155 161/165/155
f 160/164/155 162/166/155 161/165/155
f 161/165/156 162/166/156 163/167/156
f 162/166/157 164/168/157 163/167/157
f 163/167/158 164/168/158 165/169/158
f 164/168/158 166/170/158 165/169/158
f 165/169/159 166/170/159 167/171/159
f 166/170/159 168/172/159 167/171/159
f 167/171/160 168/172/160 169/173/160
f 168/172/160 170/174/160 169/173/160
f 169/173/161 170/174/161 134/137/161
f 152/156/162 154/158/162 153/157/162
f 154/158/163 156/160/163 153/157/163
f 153/157/164 156/160/164 171/175/164
f 156/160/164 159/163/164 171/175/164
f 171/175/165 159/163/165 172/176/165
f 159/163/165 161/165/165 172/176/165
f 172/176/166 161/165/166 173/177/166
f 161/165/167 163/167/167 173/177/167
f 173/177/168 163/167/168 174/178/168
f 163/167/168 165/169/168 174/178/168
f 174/178/169 165/169/169 175/179/169
f 165/169/169 167/171/169 175/179/169
f 175/179/170 167/171/170 176/180/170
f 167/171/171 169/173/171 176/180/171
f 176/180/172 169/173/172 134/137/172
f 149/153/173 151/155/173 150/154/173
f 151/155/174 153/157/174 150/154/174
f 150/154/175 153/157/175 177/181/175
f 153/157/175 171/175/175 177/181/175
f 177/181/176 171/175/176 178/182/176
f 171/175/176 172/176/176 178/182/176
f 178/182/177 172/176/177 179/183/177
f 172/176/178 173/177/178 179/183/178
f 179/183/179 173/177/179 180/184/179
f 173/177/180 174/178/180 180/184/180
f 180/184/181 174/178/181 181/185/181
f 174/178/182 175/179/182 181/185/182
f 181/185/183 175/179/183 182/186/183
f 175/179/184 176/180/184 182/186/184
f 182/186/185 176/180/185 134/137/185
f 146/150/186 148/152/186 147/151/186
f 148/152/187 150/154/187 147/151/187
f 147/151/188 150/154/188 183/187/188
f 150/154/188 177/181/188 183/187/188
f 183/187/189 177/181/189 184/188/189
f 177/181/190 178/182/190 184/188/190
f 184/188/191 178/182/191 185/189/191
f 178/182/192 179/183/192 185/189/192
f 185/189/193 179/183/193 186/190/193
f 179/183/193 180/184/193 186/190/193
f 186/190/194 180/184/194 187/191/194
f 180/184/194 181/185/194 187/191/194
f 187/191/195 181/185/195 188/192/195
f 181/185/196 182/186/196 188/192/196
f 188/192/197 182/186/197 134/137/197
f 143/147/198 145/149/198 144/148/198
f 145/149/199 147/151/199 144/148/199
f 144/148/200 147/151/200 189/193/200
f 147/151/201 183/187/201 189/193/201
f 189/193/202 183/187/202 190/194/202
f 183/187/202 184/188/202 190/194/202
f 190/194/203 184/188/203 191/195/203
f 184/188/203 185/189/203 191/195/203
f 191/195/204 185/189/204 192/196/204
f 185/189/204 186/190/204 192/196/204
f 192/196/205 186/190/205 193/197/205
f 186/190/206 187/191/206 193/197/206
f 193/197/207 187/191/207 194/198/207
f 187/191/208 188/192/208 194/198/208
f 194/198/209 188/192/209 134/137/209
f 140/144/210 142/146/210 141/145/210
f 142/146/211 144/148/211 141/145/211
f 141/145/212 144/148/212 195/199/212
f 144/148/212 189/193/212 195/199/212
f 195/199/213 189/193/213 196/200/213
f 189/193/213 190/194/213 196/200/213
f 196/200/214 190/194/214 197/201/214
f 190/194/214 191/195/214 197/201/214
f 197/201/215 191/195/215 198/202/215
f 191/195/215 192/196/215 198/202/215
f 198/202/216 192/196/216 199/203/216
f 192/196/216 193/197/216 199/203/216
f 199/203/217 193/197/217 200/204/217
f 193/197/218 194/198/218 200/204/218
f 200/204/219 194/198/219 134/137/219
f 201/205/220 139/143/220 202/206/220
f 139/143/221 141/145/221 202/206/221
f 202/206/222 141/145/222 203/207/222
f 141/145/222 195/199/222 203/207/222
f 203/207/223 195/199/223 204/208/223
f 195/199/223 196/200/223 204/208/223
f 204/208/224 196/200/224 205/209/224
f 196/200/224 197/201/224 205/209/224
f 205/209/225 197/201/225 206/210/225
f 197/201/225 198/202/225 206/210/225
f 206/210/226 198/202/226 207/211/226
f 198/202/227 199/203/227 207/211/227
f 207/211/228 199/203/228 208/212/228
f 199/203/229 200/204/229 208/212/229
f 208/212/230 200/204/230 134/137/230
f 131/131/231 130/130/231 209/213/231
f 130/130/232 157/161/232 209/213/232
f 210/214/233 211/215/233 151/155/233
f 211/215/234 212/216/234 151/155/234
f 151/155/235 212/216/235 152/156/235
f 212/216/236 213/217/236 152/156/236
f 152/156/237 213/217/237 154/158/237
f 213/217/238 214/218/238 154/158/238
f 154/158/239 214/218/239 155/159/239
f 214/218/240 215/219/240 155/159/240
f 155/159/241 215/219/241 157/161/241
f 215/219/242 216/220/242 157/161/242
f 157/161/243 216/220/243 209/213/243
f 151/155/244 149/153/244 210/214/244
f 149/153/245 148/152/245 210/214/245
f 210/214/246 148/152/246 217/221/246
f 148/152/247 146/150/247 217/221/247
f 217/221/248 146/150/248 218/222/248
f 146/150/249 145/149/249 218/222/249
f 218/222/250 145/149/250 219/223/250
f 145/149/251 143/147/251 219/223/251
f 219/223/252 143/147/252 220/224/252
f 143/147/253 142/146/253 220/224/253
f 220/224/254 142/146/254 221/225/254
f 142/146/255 140/144/255 221/225/255
f 221/225/256 140/144/256 222/226/256
f 140/144/257 139/143/257 222/226/257
f 139/143/258 201/205/258 222/226/258
f 222/226/258 201/205/258 223/227/258
f 134/137/259 170/174/259 2/2/259
f 170/174/259 224/228/259 2/2/259
f 224/228/260 170/174/260 225/229/260
f 170/174/261 168/172/261 225/229/261
f 225/229/262 168/172/262 226/230/262
f 226/230/263 168/172/263 227/231/263
f 168/172/264 166/170/264 227/231/264
f 227/231/265 166/170/265 228/232/265
f 228/232/266 166/170/266 229/233/266
f 166/170/267 164/168/267 229/233/267
f 229/233/268 164/168/268 230/234/268
f 230/234/269 164/168/269 231/235/269
f 164/168/270 162/166/270 231/235/270
f 231/235/271 162/166/271 232/236/271
f 232/236/272 162/166/272 233/237/272
f 162/166/273 160/164/273 233/237/273
f 233/237/274 160/164/274 234/238/274
f 234/238/275 160/164/275 235/239/275
f 160/164/276 158/162/276 235/239/276
f 235/239/277 158/162/277 236/240/277
f 158/162/278 130/130/278 236/240/278
f 236/240/278 130/130/278 129/129/278
f 60/60/279 58/58/279 237/241/279
f 56/56/280 54/54/280 238/242/280
f 52/52/281 50/50/281 239/243/281
f 48/48/282 46/46/282 240/244/282
f 44/44/283 42/42/283 241/245/283
f 40/40/284 38/38/284 242/246/284
f 34/34/285 33/33/285 243/247/285
f 38/38/286 34/34/286 242/246/286
f 34/34/287 243/247/287 242/246/287
f 242/246/288 243/247/288 244/248/288
f 243/247/288 245/249/288 244/248/288
f 244/248/289 245/249/289 246/250/289
f 245/249/289 247/251/289 246/250/289
f 246/250/290 247/251/290 248/252/290
f 247/251/290 249/253/290 248/252/290
f 248/252/291 249/253/291 250/254/291
f 249/253/292 251/255/292 250/254/292
f 250/254/293 251/255/293 252/256/293
f 251/255/294 253/257/294 252/256/294
f 252/256/295 253/257/295 254/258/295
f 253/257/296 255/259/296 254/258/296
f 254/258/297 255/259/297 133/136/297
f 42/42/298 40/40/298 241/245/298
f 40/40/299 242/246/299 241/245/299
f 241/245/300 242/246/300 256/260/300
f 242/246/301 244/248/301 256/260/301
f 256/260/302 244/248/302 257/261/302
f 244/248/303 246/250/303 257/261/303
f 257/261/304 246/250/304 258/262/304
f 246/250/304 248/252/304 258/262/304
f 258/262/305 248/252/305 259/263/305
f 248/252/305 250/254/305 259/263/305
f 259/263/306 250/254/306 260/264/306
f 250/254/306 252/256/306 260/264/306
f 260/264/307 252/256/307 261/265/307
f 252/256/308 254/258/308 261/265/308
f 261/265/309 254/258/309 133/136/309
f 46/46/310 44/44/310 240/244/310
f 44/44/311 241/245/311 240/244/311
f 240/244/312 241/245/312 262/266/312
f 241/245/312 256/260/312 262/266/312
f 262/266/313 256/260/313 263/267/313
f 256/260/313 257/261/313 263/267/313
f 263/267/314 257/261/314 264/268/314
f 257/261/314 258/262/314 264/268/314
f 264/268/315 258/262/315 265/269/315
f 258/262/316 259/263/316 265/269/316
f 265/269/317 259/263/317 266/270/317
f 259/263/318 260/264/318 266/270/318
f 266/270/319 260/264/319 267/271/319
f 260/264/320 261/265/320 267/271/320
f 267/271/321 261/265/321 133/136/321
f 50/50/322 48/48/322 239/243/322
f 48/48/323 240/244/323 239/243/323
f 239/243/324 240/244/324 268/272/324
f 240/244/324 262/266/324 268/272/324
f 268/272/325 262/266/325 269/273/325
f 262/266/326 263/267/326 269/273/326
f 269/273/327 263/267/327 270/274/327
f 263/267/327 264/268/327 270/274/327
f 270/274/328 264/268/328 271/275/328
f 264/268/329 265/269/329 271/275/329
f 271/275/330 265/269/330 272/276/330
f 265/269/331 266/270/331 272/276/331
f 272/276/332 266/270/332 273/277/332
f 266/270/333 267/271/333 273/277/333
f 273/277/334 267/271/334 133/136/334
f 54/54/335 52/52/335 238/242/335
f 52/52/336 239/243/336 238/242/336
f 238/242/337 239/243/337 274/278/337
f 239/243/338 268/272/338 274/278/338
f 274/278/339 268/272/339 275/279/339
f 268/272/339 269/273/339 275/279/339
f 275/279/340 269/273/340 276/280/340
f 269/273/341 270/274/341 276/280/341
f 276/280/342 270/274/342 277/281/342
f 270/274/342 271/275/342 277/281/342
f 277/281/343 271/275/343 278/282/343
f 271/275/343 272/276/343 278/282/343
f 278/282/344 272/276/344 279/283/344
f 272/276/344 273/277/344 279/283/344
f 279/283/345 273/277/345 133/136/345
f 58/58/346 56/56/346 237/241/346
f 56/56/347 238/242/347 237/241/347
f 237/241/348 238/242/348 280/284/348
f 238/242/348 274/278/348 280/284/348
f 280/284/349 274/278/349 281/285/349
f 274/278/349 275/279/349 281/285/349
f 281/285/350 275/279/350 282/286/350
f 275/279/351 276/280/351 282/286/351
f 282/286/352 276/280/352 283/287/352
f 276/280/353 277/281/353 283/287/353
f 283/287/354 277/281/354 284/288/354
f 277/281/354 278/282/354 284/288/354
f 284/288/355 278/282/355 285/289/355
f 278/282/355 279/283/355 285/289/355
f 285/289/356 279/283/356 133/136/356
f 62/62/357 60/60/357 286/290/357
f 60/60/358 237/241/358 286/290/358
f 286/290/359 237/241/359 287/291/359
f 237/241/359 280/284/359 287/291/359
f 287/291/360 280/284/360 288/292/360
f 280/284/360 281/285/360 288/292/360
f 288/292/361 281/285/361 289/293/361
f 281/285/362 282/286/362 289/293/362
f 289/293/363 282/286/363 290/294/363
f 282/286/363 283/287/363 290/294/363
f 290/294/364 283/287/364 291/295/364
f 283/287/364 284/288/364 291/295/364
f 291/295/365 284/288/365 292/296/365
f 284/288/365 285/289/365 292/296/365
f 292/296/366 285/289/366 133/136/366
f 4/4/367 293/297/367 294/298/367
f 293/297/367 295/299/367 294/298/367
f 295/299/368 293/297/368 296/300/368
f 293/297/369 297/301/369 296/300/369
f 296/300/370 297/301/370 298/302/370
f 298/302/371 297/301/371 299/303/371
f 297/301/372 300/304/372 299/303/372
f 299/303/373 300/304/373 301/305/373
f 301/305/374 300/304/374 302/306/374
f 300/304/375 303/307/375 302/306/375
f 302/306/376 303/307/376 304/308/376
f 304/308/377 303/307/377 305/309/377
f 303/307/378 306/310/378 305/309/378
f 305/309/379 306/310/379 307/311/379
f 307/311/380 306/310/380 308/312/380
f 306/310/381 309/313/381 308/312/381
f 308/312/382 309/313/382 310/314/382
f 310/314/383 309/313/383 311/315/383
f 309/313/384 312/316/384 311/315/384
f 311/315/385 312/316/385 313/317/385
f 313/317/386 312/316/386 314/318/386
f 312/316/387 129/129/387 314/318/387
f 314/318/388 129/129/388 128/128/388
f 315/319/389 119/119/389 316/320/389
f 119/119/390 120/120/390 316/320/390
f 316/320/391 120/120/391 317/321/391
f 317/321/392 120/120/392 318/322/392
f 120/120/393 121/121/393 318/322/393
f 318/322/394 121/121/394 319/323/394
f 319/323/395 121/121/395 320/324/395
f 121/121/396 122/122/396 320/324/396
f 320/324/397 122/122/397 321/325/397
f 123/123/398 124/124/398 322/326/398
f 322/326/399 323/327/399 123/123/399
f 323/327/400 324/328/400 123/123/400
f 123/123/401 324/328/401 122/122/401
f 324/328/402 325/329/402 122/122/402
f 122/122/403 325/329/403 321/325/403
f 326/330/404 327/331/404 125/125/404
f 327/331/405 328/332/405 125/125/405
f 125/125/406 328/332/406 124/124/406
f 328/332/407 329/333/407 124/124/407
f 124/124/408 329/333/408 322/326/408
f 125/125/409 126/126/409 326/330/409
f 126/126/410 5/5/410 326/330/410
f 326/330/410 5/5/410 330/334/410
f 133/136/411 1/1/411 88/88/411
f 133/136/411 88/88/411 292/296/411
f 88/88/412 80/80/412 292/296/412
f 292/296/413 80/80/413 291/295/413
f 80/80/414 79/79/414 291/295/414
f 79/79/415 77/77/415 291/295/415
f 291/295/416 77/77/416 290/294/416
f 77/77/417 76/76/417 290/294/417
f 76/76/418 74/74/418 290/294/418
f 290/294/419 74/74/419 289/293/419
f 74/74/420 73/73/420 289/293/420
f 73/73/421 71/71/421 289/293/421
f 289/293/422 71/71/422 288/292/422
f 71/71/423 70/70/423 288/292/423
f 70/70/424 68/68/424 288/292/424
f 288/292/425 68/68/425 287/291/425
f 68/68/426 67/67/426 287/291/426
f 67/67/427 65/65/427 287/291/427
f 287/291/428 65/65/428 286/290/428
f 65/65/429 64/64/429 286/290/429
f 64/64/430 119/119/430 286/290/430
f 286/290/430 119/119/430 62/62/430
f 43/43/431 45/45/431 218/222/431
f 47/47/432 49/49/432 210/214/432
f 63/63/433 131/131/433 209/213/433
f 63/63/433 209/213/433 61/61/433
f 209/213/434 216/220/434 61/61/434
f 61/61/434 216/220/434 59/59/434
f 216/220/435 215/219/435 59/59/435
f 59/59/435 215/219/435 57/57/435
f 57/57/436 215/219/436 55/55/436
f 215/219/436 214/218/436 55/55/436
f 55/55/437 214/218/437 53/53/437
f 214/218/437 213/217/437 53/53/437
f 53/53/438 213/217/438 51/51/438
f 213/217/438 212/216/438 51/51/438
f 51/51/439 212/216/439 49/49/439
f 212/216/439 211/215/439 49/49/439
f 49/49/432 211/215/432 210/214/432
f 47/47/440 210/214/440 45/45/440
f 210/214/440 217/221/440 45/45/440
f 45/45/431 217/221/431 218/222/431
f 43/43/441 218/222/441 41/41/441
f 218/222/441 219/223/441 41/41/441
f 41/41/442 219/223/442 220/224/442
f 223/227/443 35/35/443 222/226/443
f 35/35/443 36/36/443 222/226/443
f 222/226/444 36/36/444 221/225/444
f 36/36/444 37/37/444 221/225/444
f 221/225/445 37/37/445 220/224/445
f 37/37/445 39/39/445 220/224/445
f 220/224/442 39/39/442 41/41/442
f 226/230/446 227/231/446 331/335/446
f 228/232/447 229/233/447 332/336/447
f 230/234/448 231/235/448 333/337/448
f 232/236/449 233/237/449 334/338/449
f 234/238/450 235/239/450 335/339/450
f 236/240/451 129/129/451 312/316/451
f 4/4/452 6/6/452 336/340/452
f 336/340/453 6/6/453 337/341/453
f 6/6/454 8/8/454 337/341/454
f 8/8/455 10/10/455 337/341/455
f 337/341/456 10/10/456 338/342/456
f 10/10/457 12/12/457 338/342/457
f 12/12/458 14/14/458 338/342/458
f 338/342/459 14/14/459 339/343/459
f 14/14/460 16/16/460 339/343/460
f 16/16/461 18/18/461 339/343/461
f 18/18/462 20/20/462 339/343/462
f 339/343/463 20/20/463 340/344/463
f 20/20/464 22/22/464 340/344/464
f 22/22/465 24/24/465 340/344/465
f 340/344/466 24/24/466 341/345/466
f 235/239/467 236/240/467 335/339/467
f 236/240/468 312/316/468 335/339/468
f 335/339/469 312/316/469 342/346/469
f 312/316/469 309/313/469 342/346/469
f 342/346/470 309/313/470 343/347/470
f 309/313/470 306/310/470 343/347/470
f 343/347/471 306/310/471 344/348/471
f 306/310/472 303/307/472 344/348/472
f 344/348/473 303/307/473 345/349/473
f 303/307/473 300/304/473 345/349/473
f 345/349/474 300/304/474 346/350/474
f 300/304/474 297/301/474 346/350/474
f 346/350/475 297/301/475 347/351/475
f 297/301/475 293/297/475 347/351/475
f 347/351/476 293/297/476 4/4/476
f 233/237/477 234/238/477 334/338/477
f 234/238/478 335/339/478 334/338/478
f 334/338/479 335/339/479 348/352/479
f 335/339/479 342/346/479 348/352/479
f 348/352/480 342/346/480 349/353/480
f 342/346/481 343/347/481 349/353/481
f 349/353/482 343/347/482 350/354/482
f 343/347/482 344/348/482 350/354/482
f 350/354/483 344/348/483 351/355/483
f 344/348/483 345/349/483 351/355/483
f 351/355/484 345/349/484 352/356/484
f 345/349/484 346/350/484 352/356/484
f 352/356/485 346/350/485 353/357/485
f 346/350/486 347/351/486 353/357/486
f 353/357/487 347/351/487 4/4/487
f 231/235/488 232/236/488 333/337/488
f 232/236/489 334/338/489 333/337/489
f 333/337/490 334/338/490 354/358/490
f 334/338/490 348/352/490 354/358/490
f 354/358/491 348/352/491 355/359/491
f 348/352/491 349/353/491 355/359/491
f 355/359/492 349/353/492 356/360/492
f 349/353/493 350/354/493 356/360/493
f 356/360/494 350/354/494 357/361/494
f 350/354/495 351/355/495 357/361/495
f 357/361/496 351/355/496 358/362/496
f 351/355/496 352/356/496 358/362/496
f 358/362/497 352/356/497 359/363/497
f 352/356/498 353/357/498 359/363/498
f 359/363/499 353/357/499 4/4/499
f 229/233/500 230/234/500 332/336/500
f 230/234/501 333/337/501 332/336/501
f 332/336/502 333/337/502 360/364/502
f 333/337/502 354/358/502 360/364/502
f 360/364/503 354/358/503 361/365/503
f 354/358/503 355/359/503 361/365/503
f 361/365/504 355/359/504 362/366/504
f 355/359/505 356/360/505 362/366/505
f 362/366/506 356/360/506 363/367/506
f 356/360/507 357/361/507 363/367/507
f 363/367/508 357/361/508 364/368/508
f 357/361/509 358/362/509 364/368/509
f 364/368/510 358/362/510 365/369/510
f 358/362/511 359/363/511 365/369/511
f 365/369/512 359/363/512 4/4/512
f 227/231/513 228/232/513 331/335/513
f 228/232/514 332/336/514 331/335/514
f 331/335/515 332/336/515 366/370/515
f 332/336/515 360/364/515 366/370/515
f 366/370/516 360/364/516 367/371/516
f 360/364/516 361/365/516 367/371/516
f 367/371/517 361/365/517 368/372/517
f 361/365/518 362/366/518 368/372/518
f 368/372/519 362/366/519 369/373/519
f 362/366/519 363/367/519 369/373/519
f 369/373/520 363/367/520 370/374/520
f 363/367/520 364/368/520 370/374/520
f 370/374/521 364/368/521 371/375/521
f 364/368/521 365/369/521 371/375/521
f 371/375/522 365/369/522 4/4/522
f 225/229/523 226/230/523 372/376/523
f 226/230/524 331/335/524 372/376/524
f 372/376/525 331/335/525 341/345/525
f 331/335/525 366/370/525 341/345/525
f 341/345/526 366/370/526 340/344/526
f 366/370/527 367/371/527 340/344/527
f 340/344/528 367/371/528 339/343/528
f 367/371/529 368/372/529 339/343/529
f 339/343/530 368/372/530 338/342/530
f 368/372/530 369/373/530 338/342/530
f 338/342/531 369/373/531 337/341/531
f 369/373/532 370/374/532 337/341/532
f 337/341/533 370/374/533 336/340/533
f 370/374/534 371/375/534 336/340/534
f 336/340/535 371/375/535 4/4/535
f 24/24/536 26/26/536 341/345/536
f 26/26/537 28/28/537 341/345/537
f 341/345/538 28/28/538 372/376/538
f 28/28/539 30/30/539 372/376/539
f 372/376/540 30/30/540 225/229/540
f 30/30/541 3/3/541 225/229/541
f 225/229/542 3/3/542 224/228/542
f 3/3/543 2/2/543 224/228/543
f 134/137/544 133/136/544 255/259/544
f 134/137/544 255/259/544 208/212/544
f 255/259/545 253/257/545 208/212/545
f 208/212/545 253/257/545 207/211/545
f 253/257/546 251/255/546 207/211/546
f 207/211/546 251/255/546 206/210/546
f 251/255/547 249/253/547 206/210/547
f 206/210/547 249/253/547 205/209/547
f 249/253/548 247/251/548 205/209/548
f 205/209/548 247/251/548 204/208/548
f 247/251/549 245/249/549 204/208/549
f 204/208/549 245/249/549 203/207/549
f 245/249/550 243/247/550 203/207/550
f 203/207/550 243/247/550 202/206/550
f 243/247/551 33/33/551 202/206/551
f 202/206/551 33/33/551 201/205/551
f 373/377/552 374/378/552 63/63/552
f 373/377/552 63/63/552 375/379/552
f 128/128/553 127/127/553 376/380/553
f 377/381/552 378/382/552 315/319/552
f 379/383/552 380/384/552 131/131/552
f 380/384/552 381/385/552 131/131/552
f 381/385/552 382/386/552 131/131/552
f 131/131/552 382/386/552 132/132/552
f 376/380/552 383/387/552 128/128/552
f 383/387/552 384/388/552 128/128/552
f 128/128/552 384/388/552 385/389/552
f 374/378/552 386/390/552 63/63/552
f 386/390/552 135/391/552 63/63/552
f 63/63/552 135/391/552 131/131/552
f 135/391/552 136/392/552 131/131/552
f 131/131/552 136/392/552 379/383/552
f 378/382/552 387/393/552 315/319/552
f 387/393/552 388/394/552 315/319/552
f 315/319/552 388/394/552 63/63/552
f 388/394/552 389/395/552 63/63/552
f 63/63/552 389/395/552 375/379/552
f 385/389/552 138/139/552 128/128/552
f 138/139/552 137/138/552 128/128/552
f 128/128/552 137/138/552 315/319/552
f 137/138/552 390/396/552 315/319/552
f 315/319/552 390/396/552 377/381/552
f 35/35/554 223/227/554 33/33/554
f 223/227/554 201/205/554 33/33/554
f 5/5/144 4/4/144 330/334/144
f 4/4/144 294/298/144 330/334/144
f 132/132/555 479/397/555 440/135/555
f 382/386/243 477/398/243 476/399/243 132/132/243
f 132/132/556 475/400/556 464/401/556
f 381/385/557 478/402/557 459/403/557
f 381/385/238 457/404/238 460/405/238 382/386/238
f 382/386/558 461/406/558 474/407/558
f 380/384/559 480/408/559 482/409/559 381/385/559
f 381/385/560 483/410/560 478/402/560
f 136/392/256 441/411/256 472/412/256 379/383/256
f 379/383/250 465/413/250 466/414/250 380/384/250
f 380/384/561 470/415/561 473/416/561
f 388/394/562 425/417/562 438/418/562 389/395/562
f 62/62/562 119/119/562 63/63/562
f 119/119/562 315/319/562 63/63/562
f 387/393/391 443/419/391 430/420/391 388/394/391
f 388/394/563 424/421/563 425/417/563
f 387/393/564 431/422/564 432/423/564
f 378/382/565 421/424/565 433/425/565
f 378/382/395 436/426/395 437/427/395 387/393/395
f 387/393/566 462/428/566 431/422/566
f 377/381/567 429/429/567 427/430/567 378/382/567
f 378/382/568 420/431/568 421/424/568
f 137/138/569 422/141/569 423/432/569 390/396/569
f 390/396/408 448/433/408 449/434/408 377/381/408
f 377/381/570 454/435/570 447/436/570
f 135/391/571 450/437/571 451/438/571
f 386/390/17 499/439/17 485/440/17 135/391/17
f 135/391/572 484/441/572 450/437/572
f 374/378/23 503/442/23 504/443/23 386/390/23
f 386/390/573 486/444/573 456/445/573
f 373/377/29 498/446/29 497/447/29 374/378/29
f 374/378/574 496/448/574 501/449/574
f 389/395/41 439/450/41 491/451/41 375/379/41
f 375/379/575 487/452/575 488/453/575
f 375/379/35 492/454/35 494/455/35 373/377/35
f 373/377/576 495/456/576 490/457/576
f 296/300/577 327/331/577 326/330/577
f 330/334/578 294/298/578 326/330/578
f 294/298/578 295/299/578 326/330/578
f 326/330/577 295/299/577 296/300/577
f 299/303/579 329/333/579 328/332/579
f 327/331/580 296/300/580 328/332/580
f 296/300/580 298/302/580 328/332/580
f 328/332/579 298/302/579 299/303/579
f 329/333/581 299/303/581 322/326/581
f 299/303/581 301/305/581 322/326/581
f 322/326/582 301/305/582 323/327/582
f 301/305/582 302/306/582 323/327/582
f 323/327/583 302/306/583 324/328/583
f 302/306/583 304/308/583 324/328/583
f 324/328/584 304/308/584 325/329/584
f 304/308/584 305/309/584 325/329/584
f 325/329/585 305/309/585 321/325/585
f 305/309/585 307/311/585 321/325/585
f 321/325/586 307/311/586 320/324/586
f 307/311/586 308/312/586 320/324/586
f 308/312/587 310/314/587 320/324/587
f 320/324/587 310/314/587 319/323/587
f 310/314/588 311/315/588 319/323/588
f 319/323/588 311/315/588 318/322/588
f 311/315/589 313/317/589 318/322/589
f 318/322/589 313/317/589 317/321/589
f 313/317/590 314/318/590 317/321/590
f 317/321/590 314/318/590 316/320/590
f 314/318/591 128/128/591 316/320/591
f 316/320/591 128/128/591 315/319/591
f 138/139/592 399/458/592 398/459/592
f 385/389/368 402/460/368 409/461/368 138/139/368
f 138/139/593 410/462/593 399/458/593
f 384/388/373 405/463/373 407/464/373 385/389/373
f 385/389/594 400/465/594 401/466/594
f 383/387/595 394/467/595 419/468/595 384/388/595
f 384/388/596 417/469/596 408/470/596
f 127/127/386 396/134/386 412/471/386 376/380/386
f 376/380/597 411/472/597 418/473/597
f 376/380/382 415/474/382 414/475/382 383/387/382
f 383/387/598 413/476/598 392/477/598
f 453/478/599 452/479/599 390/396/599
f 464/401/600 463/480/600 132/132/600
f 414/475/601 413/476/601 383/387/601
f 404/481/602 403/482/602 385/389/602
f 488/453/603 493/483/603 375/379/603
f 419/468/604 417/469/604 384/388/604
f 466/414/605 470/415/605 380/384/605
f 481/484/249 480/408/249 380/384/249
f 494/455/606 495/456/606 373/377/606
f 501/449/607 505/485/607 374/378/607
f 403/482/608 402/460/608 385/389/608
f 407/464/609 400/465/609 385/389/609
f 497/447/610 496/448/610 374/378/610
f 392/477/611 391/486/611 383/387/611
f 416/487/612 415/474/612 376/380/612
f 408/470/613 406/488/613 384/388/613
f 391/486/614 393/489/614 383/387/614
f 438/418/562 439/450/562 389/395/562
f 434/490/615 443/419/615 387/393/615
f 463/480/616 479/397/616 132/132/616
f 476/399/617 475/400/617 132/132/617
f 412/471/618 411/472/618 376/380/618
f 432/423/619 434/490/619 387/393/619
f 471/491/620 467/492/620 379/383/620
f 449/434/621 454/435/621 377/381/621
f 456/445/622 455/493/622 386/390/622
f 428/494/623 426/495/623 388/394/623
f 423/496/552 422/497/552 445/498/552 397/499/552 398/500/552 399/501/552 410/502/552 409/503/552 402/504/552 403/505/552 404/506/552 401/507/552 400/508/552 407/509/552 405/510/552 406/511/552 408/512/552 417/513/552 419/514/552 394/515/552 393/516/552 391/517/552 392/518/552 413/519/552 414/520/552 415/521/552 416/522/552 418/523/552 411/524/552 412/525/552 396/526/552 395/527/552 440/528/552 479/529/552 463/530/552 464/531/552 475/532/552 476/533/552 477/534/552 468/535/552 469/536/552 474/537/552 461/538/552 460/539/552 457/540/552 458/541/552 459/542/552 478/543/552 483/544/552 482/545/552 480/546/552 481/547/552 473/548/552 470/549/552 466/550/552 465/551/552 467/552/552 471/553/552 472/554/552 441/555/552 442/556/552 444/557/552 451/558/552 450/559/552 484/560/552 485/561/552 499/562/552 500/563/552 455/564/552 456/565/552 486/566/552 504/567/552 503/568/552 505/569/552 501/570/552 496/571/552 497/572/552 498/573/552 502/574/552 489/575/552 490/576/552 495/577/552 494/578/552 492/579/552 493/580/552 488/581/552 487/582/552 491/583/552 439/584/552 438/585/552 425/586/552 424/587/552 426/588/552 428/589/552 430/590/552 443/591/552 434/592/552 432/593/552 431/594/552 462/595/552 437/596/552 436/597/552 435/598/552 433/599/552 421/600/552 420/601/552 427/602/552 429/603/552 446/604/552 447/605/552 454/606/552 449/607/552 448/608/552 452/609/552 453/610/552
f 406/488/624 405/463/624 384/388/624
f 504/443/625 486/444/625 386/390/625
f 458/611/626 457/404/626 381/385/626
f 418/473/627 416/487/627 376/380/627
f 442/612/554 441/411/554 136/392/554 135/391/554
f 401/466/628 404/481/628 385/389/628
f 490/457/629 489/613/629 373/377/629
f 435/614/630 436/426/630 378/382/630
f 468/615/631 477/398/631 382/386/631
f 444/616/554 442/612/554 135/391/554
f 447/436/632 446/617/632 377/381/632
f 409/461/633 410/462/633 138/139/633
f 423/432/634 453/478/634 390/396/634
f 430/420/635 428/494/635 388/394/635
f 482/409/636 483/410/636 381/385/636
f 491/451/637 487/452/637 375/379/637
f 427/430/638 420/431/638 378/382/638
f 493/483/639 492/454/639 375/379/639
f 467/492/640 465/413/640 379/383/640
f 451/438/641 444/616/641 135/391/641
f 500/618/642 499/439/642 386/390/642
f 426/495/643 424/421/643 388/394/643
f 398/459/644 397/142/644 138/139/644
f 502/619/645 498/446/645 373/377/645
f 437/427/646 462/428/646 387/393/646
f 460/405/647 461/406/647 382/386/647
f 474/407/648 469/620/648 382/386/648
f 473/416/649 481/484/649 380/384/649
f 489/613/650 502/619/650 373/377/650
f 393/489/651 394/467/651 383/387/651
f 446/617/652 429/429/652 377/381/652
f 472/412/653 471/491/653 379/383/653
f 433/425/654 435/614/654 378/382/654
f 485/440/655 484/441/655 135/391/655
f 452/479/656 448/433/656 390/396/656
f 459/403/657 458/611/657 381/385/657
f 469/620/658 468/615/658 382/386/658
f 455/493/659 500/618/659 386/390/659
f 505/485/660 503/442/660 374/378/660
